<svg width="26" height="27" viewBox="0 0 26 27" fill="none" xmlns="http://www.w3.org/2000/svg">
<path d="M3.844 26.9836H22.2488C23.3123 26.9836 24.134 26.6775 24.7141 26.0652C25.2942 25.4529 25.5842 24.5466 25.5842 23.3462V11.9625C25.5842 10.7621 25.274 9.85575 24.6537 9.24346C24.0414 8.63118 23.127 8.32503 21.9105 8.32503H15.4936V10.2586H21.9709C22.5026 10.2586 22.9135 10.4036 23.2035 10.6936C23.5016 10.9836 23.6507 11.4066 23.6507 11.9625V23.3583C23.6507 23.9222 23.5016 24.3452 23.2035 24.6271C22.9135 24.9172 22.5026 25.0622 21.9709 25.0622H3.78358C3.23575 25.0622 2.81681 24.9172 2.52678 24.6271C2.24481 24.3371 2.10382 23.9101 2.10382 23.3462V11.9504C2.10382 11.3945 2.24481 10.9756 2.52678 10.6936C2.81681 10.4036 3.23575 10.2586 3.78358 10.2586H10.2851V8.32503H3.49355C2.43816 8.32503 1.61641 8.63118 1.02829 9.24346C0.448233 9.84769 0.158203 10.754 0.158203 11.9625V23.3462C0.158203 24.5627 0.464346 25.4731 1.07663 26.0773C1.69697 26.6815 2.61943 26.9836 3.844 26.9836ZM12.8954 20.4096C13.3062 20.4096 13.705 20.317 14.0917 20.1317C14.4784 19.9383 14.8933 19.6483 15.3365 19.2616L24.6658 11.0803L23.3606 9.77518L14.2247 17.7752C13.9588 18.0008 13.7211 18.174 13.5117 18.2948C13.3103 18.4076 13.1048 18.464 12.8954 18.464C12.6778 18.464 12.4643 18.4036 12.2549 18.2827C12.0454 18.1619 11.8158 17.9927 11.5661 17.7752L2.38177 9.72685L1.06455 11.032L10.4422 19.2616C10.8853 19.6483 11.3002 19.9383 11.6869 20.1317C12.0736 20.317 12.4764 20.4096 12.8954 20.4096ZM23.2277 25.5093L24.5449 24.18L17.1733 16.8809L15.844 18.1981L23.2277 25.5093ZM2.53887 25.5214L9.91047 18.2102L8.59325 16.893L1.22165 24.1921L2.53887 25.5214ZM4.48449 3.70872L6.90141 6.25857C7.15921 6.51637 7.40493 6.61708 7.63857 6.56068C7.88026 6.50429 8.03333 6.29885 8.09778 5.94437L8.33947 4.73591C9.53987 4.93732 10.4341 5.36834 11.0223 6.02896C11.6104 6.68153 11.9044 7.44689 11.9044 8.32503V13.4972C11.9044 13.8114 11.993 14.0692 12.1703 14.2707C12.3475 14.464 12.5852 14.5607 12.8833 14.5607C13.1814 14.5607 13.419 14.464 13.5963 14.2707C13.7816 14.0692 13.8742 13.8114 13.8742 13.4972V8.32503C13.8742 7.44689 14.1642 6.68153 14.7443 6.02896C15.3324 5.36834 16.2267 4.93732 17.4271 4.73591L17.6567 5.94437C17.7211 6.29885 17.8742 6.50429 18.1159 6.56068C18.3576 6.61708 18.6073 6.51637 18.8652 6.25857L21.27 3.70872C21.4714 3.49925 21.5479 3.2777 21.4996 3.04407C21.4513 2.81043 21.2942 2.63319 21.0283 2.51234L17.838 1.09845C17.4996 0.945375 17.2297 0.945375 17.0283 1.09845C16.8349 1.24346 16.7745 1.48515 16.847 1.82352L17.0887 3.05615C16.5006 3.16894 15.9125 3.36229 15.3244 3.63621C14.7443 3.90207 14.2327 4.22433 13.7896 4.60298C13.3546 4.97357 13.0525 5.37236 12.8833 5.79935C12.7222 5.37236 12.42 4.97357 11.9769 4.60298C11.5338 4.22433 11.0182 3.90207 10.4301 3.63621C9.85005 3.36229 9.26596 3.16894 8.67784 3.05615L8.90745 1.82352C8.97996 1.48515 8.9155 1.24346 8.71409 1.09845C8.52074 0.945375 8.25891 0.945375 7.9286 1.09845L4.72618 2.51234C4.46032 2.63319 4.30322 2.81043 4.25488 3.04407C4.20654 3.2777 4.28308 3.49925 4.48449 3.70872Z" fill="#6E42D3"/>
</svg>
