<svg width="1265" height="120" viewBox="0 0 1265 120" fill="none" xmlns="http://www.w3.org/2000/svg">
<path d="M0 0H1265V120H0V0Z" fill="white"/>
<mask id="mask0_1_8" style="mask-type:alpha" maskUnits="userSpaceOnUse" x="0" y="0" width="1265" height="120">
<mask id="path-2-inside-1_1_8" fill="white">
<path d="M0 5C0 2.23858 2.23858 0 5 0H1260C1262.76 0 1265 2.23858 1265 5V115C1265 117.761 1262.76 120 1260 120H4.99999C2.23857 120 0 117.761 0 115V5Z"/>
</mask>
<path d="M0 5C0 2.23858 2.23858 0 5 0H1260C1262.76 0 1265 2.23858 1265 5V115C1265 117.761 1262.76 120 1260 120H4.99999C2.23857 120 0 117.761 0 115V5Z" fill="#B37C7C"/>
<path d="M0 0H1265H0ZM1265 120H0H1265ZM5 120C0.581722 120 -3 116.418 -3 112V8C-3 3.58172 0.581722 0 5 0C3.89543 0 3 2.23858 3 5V115C3 117.761 3.89543 120 5 120ZM1265 0V120V0Z" fill="#6E42D3" mask="url(#path-2-inside-1_1_8)"/>
</mask>
<g mask="url(#mask0_1_8)">
<g filter="url(#filter0_f_1_8)">
<circle cx="631.877" cy="158.794" r="32.9384" fill="#FFC909"/>
</g>
<g filter="url(#filter1_f_1_8)">
<circle cx="347.025" cy="-42.7935" r="32.9384" fill="#6E42D3"/>
</g>
<g filter="url(#filter2_f_1_8)">
<ellipse cx="839.257" cy="109.046" rx="51.7603" ry="21.8469" fill="#6E42D3"/>
</g>
<g filter="url(#filter3_f_1_8)">
<ellipse cx="1094.7" cy="1.15655" rx="58.4824" ry="24.1996" fill="#00B4FF"/>
</g>
<g filter="url(#filter4_f_1_8)">
<ellipse cx="523.318" cy="-11.727" rx="25.544" ry="10.7554" fill="#EE8134"/>
</g>
<g filter="url(#filter5_f_1_8)">
<ellipse cx="142.347" cy="161.366" rx="58.4824" ry="24.1996" fill="#9E3DFF"/>
</g>
<g opacity="0.2">
<path d="M36.5597 120.456C34.3603 120.456 32.2269 120.887 30.2218 121.736C29.2581 122.144 28.3294 122.65 27.4589 123.236C26.5982 123.817 25.788 124.486 25.0536 125.222C24.3172 125.958 23.6508 126.767 23.0679 127.627C22.4811 128.496 21.976 129.425 21.5679 130.39C20.7189 132.395 20.2875 134.529 20.2875 136.728C20.2875 138.929 20.7189 141.061 21.5679 143.066C21.976 144.03 22.4811 144.958 23.0679 145.829C23.6488 146.69 24.3172 147.5 25.0536 148.234C25.7899 148.971 26.5982 149.637 27.4589 150.22C28.3274 150.807 29.2562 151.312 30.2218 151.72C32.2269 152.569 34.3603 153 36.5597 153C38.7591 153 40.8925 152.569 42.8976 151.72C43.8613 151.312 44.79 150.807 45.6605 150.22C46.5212 149.639 47.3314 148.971 48.0658 148.234C48.8022 147.498 49.4686 146.69 50.0515 145.829C50.6383 144.96 51.1435 144.032 51.5515 143.066C52.4005 141.061 52.8319 138.928 52.8319 136.728C52.8319 134.529 52.4005 132.395 51.5515 130.39C51.1435 129.427 50.6383 128.498 50.0515 127.627C49.4706 126.767 48.8022 125.956 48.0658 125.222C47.3295 124.486 46.5212 123.819 45.6605 123.236C44.792 122.65 43.8632 122.144 42.8976 121.736C40.8944 120.887 38.7611 120.456 36.5597 120.456ZM36.5597 119.731C38.8582 119.731 41.0848 120.182 43.1754 121.068C44.1819 121.493 45.1533 122.02 46.0607 122.634C46.9603 123.242 47.8055 123.938 48.5729 124.705C49.3404 125.473 50.0379 126.318 50.6461 127.215C51.26 128.123 51.7866 129.092 52.214 130.099C53.1019 132.191 53.5547 134.422 53.5547 136.726C53.5547 139.025 53.1039 141.251 52.2179 143.342C51.7924 144.348 51.2659 145.32 50.6519 146.227C50.0437 147.127 49.3482 147.972 48.5788 148.739C47.8113 149.507 46.9661 150.204 46.0685 150.813C45.1611 151.426 44.1916 151.953 43.1852 152.38C41.0926 153.268 38.8621 153.721 36.5578 153.721C34.2593 153.721 32.0326 153.27 29.942 152.384C28.9356 151.959 27.9641 151.432 27.0568 150.818C26.1572 150.21 25.312 149.515 24.5445 148.747C23.7771 147.98 23.0796 147.135 22.4714 146.237C21.8574 145.33 21.3309 144.36 20.9034 143.354C20.0155 141.261 19.5628 139.03 19.5628 136.726C19.5628 134.428 20.0136 132.201 20.8996 130.11C21.3251 129.104 21.8516 128.133 22.4656 127.225C23.0737 126.326 23.7693 125.48 24.5387 124.713C25.3062 123.945 26.1513 123.248 27.049 122.64C27.9563 122.026 28.9259 121.499 29.9323 121.072C32.0268 120.184 34.2573 119.731 36.5597 119.731Z" fill="#3858E9"/>
<path d="M36.5593 117.928C34.0179 117.928 31.5542 118.427 29.2383 119.407C28.1249 119.879 27.0505 120.462 26.046 121.14C25.0512 121.812 24.1166 122.583 23.2656 123.434C22.4146 124.285 21.6433 125.22 20.971 126.215C20.2929 127.219 19.71 128.292 19.2379 129.407C18.2567 131.723 17.7593 134.187 17.7593 136.728C17.7593 139.269 18.2587 141.733 19.2379 144.049C19.71 145.162 20.2929 146.237 20.971 147.241C21.6433 148.236 22.4146 149.171 23.2656 150.022C24.1166 150.871 25.0512 151.644 26.046 152.316C27.0505 152.994 28.123 153.577 29.2383 154.049C31.5542 155.031 34.0179 155.528 36.5593 155.528C39.1006 155.528 41.5643 155.029 43.8803 154.049C44.9936 153.577 46.0681 152.994 47.0726 152.316C48.0673 151.644 49.0019 150.873 49.8529 150.022C50.702 149.171 51.4753 148.236 52.1475 147.241C52.8256 146.237 53.4085 145.164 53.8806 144.049C54.8618 141.733 55.3592 139.269 55.3592 136.728C55.3592 134.187 54.8599 131.723 53.8806 129.407C53.4085 128.294 52.8256 127.219 52.1475 126.215C51.4753 125.22 50.7039 124.285 49.8529 123.434C49.0019 122.585 48.0673 121.812 47.0726 121.14C46.0681 120.462 44.9955 119.879 43.8803 119.407C41.5643 118.427 39.1006 117.928 36.5593 117.928ZM36.5593 117.275C39.19 117.275 41.7372 117.792 44.1309 118.804C45.2831 119.292 46.3945 119.894 47.4339 120.598C48.4637 121.293 49.4313 122.092 50.3095 122.97C51.1896 123.848 51.9882 124.816 52.6838 125.846C53.3871 126.885 53.9894 127.995 54.4791 129.147C55.4952 131.542 56.012 134.095 56.012 136.728C56.012 139.359 55.4952 141.906 54.483 144.3C53.9953 145.452 53.3929 146.563 52.6896 147.603C51.994 148.633 51.1955 149.6 50.3173 150.478C49.4391 151.358 48.4715 152.157 47.4417 152.853C46.4022 153.556 45.2928 154.158 44.1406 154.648C41.745 155.664 39.1919 156.181 36.5593 156.181C33.9285 156.181 31.3813 155.664 28.9876 154.652C27.8354 154.164 26.7241 153.562 25.6846 152.858C24.6548 152.163 23.6873 151.364 22.809 150.486C21.9289 149.608 21.1303 148.64 20.4348 147.611C19.7314 146.571 19.1291 145.462 18.6414 144.309C17.6253 141.914 17.1084 139.361 17.1084 136.728C17.1084 134.097 17.6253 131.55 18.6375 129.156C19.1252 128.004 19.7275 126.893 20.4309 125.853C21.1265 124.824 21.925 123.856 22.8032 122.978C23.6814 122.098 24.649 121.299 25.6788 120.604C26.7182 119.9 27.8277 119.298 28.9798 118.808C31.3755 117.792 33.9266 117.275 36.5593 117.275Z" fill="#3858E9"/>
<path d="M36.5594 115.402C33.678 115.402 30.8841 115.968 28.2553 117.079C26.9924 117.613 25.7741 118.276 24.6336 119.045C23.5048 119.809 22.4439 120.683 21.4802 121.649C20.5165 122.613 19.6403 123.675 18.8767 124.802C18.1073 125.941 17.4447 127.159 16.9104 128.424C15.799 131.053 15.2337 133.847 15.2337 136.728C15.2337 139.609 15.799 142.403 16.9104 145.032C17.4447 146.295 18.1073 147.513 18.8767 148.654C19.6403 149.783 20.5146 150.844 21.4802 151.807C22.4439 152.771 23.5048 153.647 24.6336 154.411C25.7722 155.18 26.9904 155.843 28.2553 156.377C30.8841 157.488 33.678 158.054 36.5594 158.054C39.4408 158.054 42.2348 157.488 44.8636 156.377C46.1265 155.843 47.3447 155.18 48.4852 154.411C49.6141 153.647 50.6749 152.773 51.6386 151.807C52.6024 150.844 53.4786 149.781 54.2422 148.654C55.0116 147.515 55.6741 146.297 56.2084 145.032C57.3198 142.403 57.8852 139.609 57.8852 136.728C57.8852 133.847 57.3198 131.053 56.2084 128.424C55.6741 127.161 55.0116 125.943 54.2422 124.802C53.4786 123.673 52.6043 122.613 51.6386 121.649C50.6749 120.685 49.6121 119.809 48.4852 119.045C47.3467 118.276 46.1285 117.613 44.8636 117.079C42.2367 115.968 39.4428 115.402 36.5594 115.402ZM36.5594 114.817C39.5205 114.817 42.3902 115.398 45.087 116.539C46.3849 117.089 47.6362 117.767 48.8078 118.558C49.9677 119.341 51.0577 120.24 52.0486 121.231C53.0395 122.222 53.9391 123.31 54.7221 124.47C55.5129 125.64 56.1929 126.891 56.7427 128.189C57.8852 130.888 58.4681 133.761 58.4681 136.726C58.4681 139.687 57.8871 142.557 56.7466 145.254C56.1968 146.552 55.5187 147.803 54.7279 148.974C53.9449 150.134 53.0453 151.224 52.0544 152.215C51.0635 153.206 49.9755 154.106 48.8155 154.889C47.6459 155.68 46.3946 156.36 45.0967 156.909C42.398 158.052 39.5244 158.635 36.5594 158.635C33.5984 158.635 30.7287 158.054 28.0319 156.913C26.734 156.363 25.4827 155.685 24.3111 154.895C23.1512 154.112 22.0612 153.212 21.0703 152.221C20.0794 151.23 19.1798 150.142 18.3968 148.982C17.606 147.813 16.926 146.561 16.3761 145.263C15.2336 142.565 14.6508 139.691 14.6508 136.726C14.6508 133.765 15.2317 130.895 16.3722 128.199C16.9221 126.901 17.6002 125.649 18.391 124.478C19.174 123.318 20.0735 122.228 21.0644 121.237C22.0553 120.246 23.1453 119.346 24.3033 118.563C25.473 117.773 26.7242 117.093 28.0221 116.543C30.7228 115.4 33.5964 114.817 36.5594 114.817Z" fill="#3858E9"/>
<path d="M36.5596 112.877C33.3362 112.877 30.212 113.508 27.2723 114.752C25.8598 115.35 24.4959 116.088 23.2213 116.951C21.9584 117.804 20.7712 118.783 19.6929 119.861C18.6146 120.94 17.6353 122.127 16.7824 123.39C15.9216 124.664 15.1814 126.026 14.5829 127.441C13.3394 130.381 12.708 133.505 12.708 136.728C12.708 139.952 13.3394 143.076 14.5829 146.015C15.1814 147.428 15.9216 148.792 16.7824 150.066C17.6353 151.329 18.6146 152.517 19.6929 153.595C20.7712 154.673 21.9584 155.652 23.2213 156.505C24.4959 157.366 25.8579 158.106 27.2723 158.705C30.212 159.948 33.3362 160.58 36.5596 160.58C39.7829 160.58 42.9072 159.948 45.8469 158.705C47.2594 158.106 48.6234 157.368 49.8979 156.505C51.1608 155.652 52.348 154.673 53.4263 153.595C54.5046 152.517 55.4839 151.329 56.3369 150.066C57.1976 148.792 57.9378 147.43 58.5363 146.015C59.7797 143.076 60.4112 139.952 60.4112 136.728C60.4112 133.505 59.7797 130.381 58.5363 127.441C57.9378 126.028 57.1995 124.664 56.3369 123.39C55.4839 122.127 54.5046 120.94 53.4263 119.861C52.348 118.783 51.1608 117.804 49.8979 116.951C48.6234 116.09 47.2614 115.35 45.8469 114.752C42.9072 113.508 39.7829 112.877 36.5596 112.877ZM36.5596 112.362C39.8509 112.362 43.0432 113.007 46.0431 114.277C47.4867 114.888 48.8779 115.643 50.1797 116.523C51.4698 117.394 52.6822 118.395 53.7838 119.496C54.8855 120.598 55.8861 121.81 56.7585 123.098C57.6386 124.4 58.3945 125.791 59.0065 127.235C60.2772 130.237 60.9241 133.431 60.9241 136.726C60.9241 140.018 60.2791 143.21 59.0084 146.21C58.3983 147.653 57.6425 149.045 56.7624 150.346C55.8919 151.636 54.8913 152.849 53.7896 153.95C52.688 155.052 51.4756 156.053 50.1874 156.925C48.8856 157.805 47.4945 158.561 46.0509 159.173C43.0491 160.444 39.8548 161.091 36.5596 161.091C33.2682 161.091 30.076 160.446 27.0761 159.175C25.6325 158.565 24.2413 157.809 22.9395 156.929C21.6494 156.059 20.437 155.058 19.3354 153.956C18.2337 152.855 17.2331 151.642 16.3607 150.354C15.4806 149.052 14.7248 147.661 14.1128 146.218C12.8421 143.216 12.1951 140.021 12.1951 136.726C12.1951 133.435 12.8401 130.243 14.1108 127.243C14.7209 125.799 15.4767 124.408 16.3568 123.106C17.2273 121.816 18.2279 120.604 19.3296 119.502C20.4312 118.4 21.6436 117.4 22.9318 116.527C24.2336 115.647 25.6247 114.891 27.0683 114.279C30.0702 113.009 33.2644 112.362 36.5596 112.362Z" fill="#3858E9"/>
<path d="M36.5595 110.349C32.9961 110.349 29.5416 111.048 26.2891 112.424C24.727 113.084 23.2193 113.902 21.8106 114.856C20.4136 115.801 19.1021 116.883 17.9072 118.076C16.7143 119.269 15.6301 120.582 14.6878 121.979C13.7357 123.39 12.9177 124.896 12.2552 126.46C10.8796 129.71 10.1821 133.167 10.1821 136.73C10.1821 140.293 10.8815 143.748 12.2552 147.001C12.9158 148.563 13.7338 150.07 14.6878 151.481C15.632 152.878 16.7143 154.189 17.9072 155.384C19.1002 156.577 20.4136 157.661 21.8106 158.604C23.2212 159.556 24.727 160.374 26.2891 161.036C29.5396 162.412 32.9961 163.111 36.5595 163.111C40.1229 163.111 43.5775 162.412 46.8299 161.036C48.3921 160.376 49.8998 159.558 51.3104 158.604C52.7073 157.66 54.0188 156.577 55.2138 155.384C56.4067 154.191 57.4909 152.878 58.4332 151.481C59.3852 150.07 60.2032 148.565 60.8658 147.001C62.2414 143.75 62.9409 140.293 62.9409 136.73C62.9409 133.167 62.2414 129.712 60.8658 126.46C60.2052 124.898 59.3872 123.39 58.4332 121.979C57.4889 120.582 56.4067 119.271 55.2138 118.076C54.0208 116.883 52.7073 115.799 51.3104 114.856C49.8998 113.904 48.394 113.086 46.8299 112.424C43.5794 111.048 40.1229 110.349 36.5595 110.349ZM36.5595 109.906C40.1831 109.906 43.696 110.617 46.999 112.014C48.5883 112.686 50.1213 113.518 51.5532 114.485C52.9735 115.445 54.3083 116.545 55.5207 117.759C56.7331 118.972 57.8348 120.306 58.7946 121.727C59.7641 123.161 60.5957 124.692 61.268 126.281C62.6669 129.586 63.378 133.103 63.378 136.728C63.378 140.352 62.6669 143.865 61.2699 147.168C60.5976 148.757 59.7661 150.29 58.7985 151.722C57.8387 153.142 56.7389 154.477 55.5246 155.689C54.3122 156.902 52.9774 158.003 51.5571 158.963C50.1232 159.933 48.5922 160.764 47.0028 161.437C43.6979 162.836 40.1812 163.547 36.5556 163.547C32.932 163.547 29.4192 162.836 26.1162 161.439C24.5268 160.766 22.9939 159.935 21.5619 158.967C20.1416 158.007 18.8068 156.908 17.5944 155.693C16.382 154.479 15.2804 153.146 14.3206 151.726C13.351 150.292 12.5194 148.761 11.8472 147.171C10.4483 143.867 9.73715 140.35 9.73715 136.724C9.73715 133.101 10.4483 129.588 11.8452 126.285C12.5175 124.695 13.3491 123.162 14.3167 121.731C15.2765 120.31 16.3762 118.975 17.5905 117.763C18.8049 116.551 20.1377 115.449 21.558 114.489C22.9919 113.52 24.523 112.688 26.1123 112.016C29.4192 110.617 32.934 109.906 36.5595 109.906Z" fill="#3858E9"/>
<path d="M36.5596 107.823C32.6563 107.823 28.8695 108.588 25.3061 110.096C23.5944 110.821 21.9429 111.717 20.3982 112.762C18.8672 113.795 17.4294 114.983 16.1218 116.29C14.8142 117.598 13.6271 119.038 12.5934 120.567C11.55 122.111 10.6524 123.763 9.92769 125.476C8.41997 129.04 7.65446 132.825 7.65446 136.73C7.65446 140.633 8.41997 144.42 9.92769 147.984C10.6524 149.695 11.5481 151.347 12.5934 152.893C13.6271 154.424 14.8142 155.862 16.1218 157.17C17.4294 158.477 18.8691 159.665 20.3982 160.698C21.9429 161.742 23.5944 162.639 25.3061 163.364C28.8695 164.872 32.6543 165.637 36.5596 165.637C40.463 165.637 44.2498 164.872 47.8132 163.364C49.5249 162.639 51.1764 161.743 52.723 160.698C54.2541 159.665 55.6918 158.477 56.9994 157.17C58.307 155.862 59.4942 154.422 60.5278 152.893C61.5712 151.349 62.4688 149.697 63.1935 147.984C64.7013 144.42 65.4668 140.635 65.4668 136.73C65.4668 132.827 64.7013 129.04 63.1935 125.476C62.4688 123.765 61.5731 122.113 60.5278 120.567C59.4942 119.036 58.307 117.598 56.9994 116.29C55.6918 114.983 54.2521 113.795 52.723 112.762C51.1784 111.718 49.5269 110.821 47.8132 110.096C44.2518 108.588 40.465 107.823 36.5596 107.823ZM36.5596 107.45C40.5135 107.45 44.3489 108.225 47.955 109.75C49.6901 110.485 51.363 111.392 52.927 112.449C54.4775 113.496 55.9347 114.699 57.2579 116.022C58.583 117.347 59.7856 118.802 60.8329 120.353C61.8898 121.917 62.7991 123.59 63.5336 125.325C65.0607 128.933 65.836 132.77 65.836 136.726C65.836 140.68 65.0607 144.515 63.5355 148.121C62.8011 149.857 61.8937 151.529 60.8368 153.093C59.7895 154.644 58.5868 156.101 57.2637 157.424C55.9386 158.749 54.4833 159.952 52.9328 160.999C51.3688 162.056 49.6959 162.966 47.9609 163.7C44.3528 165.227 40.5155 166.002 36.5596 166.002C32.6057 166.002 28.7704 165.227 25.1643 163.702C23.4292 162.968 21.7563 162.06 20.1923 161.003C18.6418 159.956 17.1846 158.753 15.8615 157.43C14.5364 156.105 13.3337 154.65 12.2864 153.099C11.2295 151.535 10.3202 149.862 9.58573 148.127C8.05858 144.519 7.2814 140.682 7.2814 136.726C7.2814 132.772 8.05663 128.937 9.58184 125.331C10.3163 123.596 11.2236 121.923 12.2806 120.359C13.3278 118.808 14.5305 117.351 15.8537 116.028C17.1788 114.703 18.634 113.5 20.1845 112.453C21.7486 111.396 23.4215 110.487 25.1565 109.752C28.7665 108.225 32.6038 107.45 36.5596 107.45Z" fill="#3858E9"/>
<path d="M36.5598 105.295C32.3145 105.295 28.1974 106.127 24.3232 107.767C22.4618 108.553 20.6646 109.529 18.9859 110.665C17.3227 111.79 15.7567 113.08 14.3345 114.503C12.9123 115.925 11.6221 117.489 10.4972 119.154C9.3625 120.835 8.38713 122.63 7.59829 124.493C5.95845 128.368 5.12687 132.485 5.12687 136.73C5.12687 140.975 5.95845 145.092 7.59829 148.967C8.38713 150.828 9.36055 152.625 10.4972 154.306C11.6221 155.969 12.9123 157.535 14.3345 158.957C15.7567 160.38 17.3208 161.67 18.9859 162.795C20.6665 163.929 22.4618 164.905 24.3232 165.692C28.1974 167.331 32.3145 168.163 36.5598 168.163C40.8052 168.163 44.9223 167.331 48.7965 165.692C50.6579 164.905 52.4551 163.929 54.1357 162.795C55.7989 161.67 57.3649 160.38 58.7871 158.957C60.2094 157.535 61.4995 155.971 62.6245 154.306C63.7591 152.625 64.7345 150.83 65.5214 148.967C67.1612 145.092 67.9928 140.975 67.9928 136.73C67.9928 132.485 67.1612 128.368 65.5214 124.493C64.7345 122.632 63.7591 120.835 62.6245 119.154C61.4995 117.491 60.2094 115.925 58.7871 114.503C57.3649 113.08 55.8008 111.79 54.1357 110.665C52.4551 109.531 50.6598 108.555 48.7965 107.767C44.9223 106.129 40.8052 105.295 36.5598 105.295ZM36.5598 104.992C40.846 104.992 45.0019 105.831 48.9131 107.487C50.7939 108.281 52.6066 109.266 54.3028 110.413C55.9835 111.547 57.5631 112.851 58.9989 114.287C60.4348 115.723 61.7385 117.302 62.8732 118.981C64.0195 120.677 65.0046 122.49 65.7993 124.371C67.4546 128.282 68.2959 132.44 68.2959 136.728C68.2959 141.014 67.4566 145.17 65.8012 149.081C65.0065 150.962 64.0214 152.775 62.8751 154.471C61.7404 156.152 60.4367 157.731 59.0009 159.167C57.565 160.603 55.9854 161.907 54.3067 163.041C52.6105 164.188 50.7978 165.173 48.917 165.967C45.0058 167.623 40.8479 168.464 36.5598 168.464C32.2737 168.464 28.1177 167.625 24.2066 165.969C22.3258 165.175 20.5131 164.19 18.8169 163.043C17.1362 161.909 15.5566 160.605 14.1208 159.169C12.6849 157.733 11.3812 156.154 10.2465 154.475C9.10019 152.779 8.11511 150.966 7.32044 149.085C5.66505 145.174 4.82376 141.016 4.82376 136.728C4.82376 132.442 5.66311 128.286 7.3185 124.375C8.11316 122.494 9.09825 120.681 10.2446 118.985C11.3793 117.304 12.683 115.725 14.1188 114.289C15.5546 112.853 17.1343 111.549 18.813 110.415C20.5092 109.268 22.3219 108.283 24.2027 107.489C28.1158 105.833 32.2737 104.992 36.5598 104.992Z" fill="#3858E9"/>
<path d="M36.5597 102.769C31.9743 102.769 27.5269 103.667 23.3399 105.439C21.327 106.29 19.3879 107.343 17.5732 108.569C15.776 109.783 14.0856 111.178 12.5488 112.715C11.0119 114.252 9.61686 115.942 8.40252 117.74C7.17652 119.554 6.12344 121.495 5.27243 123.508C3.50241 127.693 2.60283 132.143 2.60283 136.728C2.60283 141.313 3.50047 145.761 5.27243 149.948C6.12344 151.961 7.17652 153.9 8.40252 155.716C9.61686 157.514 11.0119 159.204 12.5488 160.741C14.0856 162.278 15.776 163.673 17.5732 164.887C19.3879 166.113 21.3289 167.166 23.3399 168.017C27.525 169.787 31.9743 170.687 36.5597 170.687C41.145 170.687 45.5924 169.789 49.7795 168.017C51.7924 167.166 53.7315 166.113 55.5481 164.887C57.3453 163.673 59.0357 162.278 60.5725 160.741C62.1094 159.204 63.5045 157.514 64.7188 155.716C65.9448 153.902 66.9979 151.961 67.8489 149.948C69.6189 145.763 70.5185 141.313 70.5185 136.728C70.5185 132.143 69.6209 127.695 67.8489 123.508C66.9979 121.495 65.9448 119.556 64.7188 117.74C63.5045 115.942 62.1094 114.252 60.5725 112.715C59.0357 111.178 57.3453 109.783 55.5481 108.569C53.7334 107.343 51.7924 106.29 49.7795 105.439C45.5944 103.669 41.147 102.769 36.5597 102.769ZM36.5597 102.536C41.1761 102.536 45.6546 103.442 49.8689 105.223C51.8954 106.08 53.848 107.141 55.6763 108.375C57.4872 109.597 59.1892 111.002 60.7358 112.548C62.2824 114.095 63.6871 115.797 64.9112 117.608C66.1469 119.436 67.2058 121.389 68.0646 123.415C69.8482 127.629 70.7536 132.11 70.7536 136.726C70.7536 141.343 69.8482 145.821 68.0665 150.035C67.2097 152.062 66.1488 154.014 64.915 155.843C63.6929 157.654 62.2882 159.356 60.7416 160.902C59.195 162.449 57.493 163.854 55.6822 165.078C53.8539 166.313 51.9012 167.374 49.8747 168.231C45.6604 170.015 41.18 170.92 36.5636 170.92C31.9471 170.92 27.4686 170.015 23.2544 168.233C21.2279 167.376 19.2752 166.315 17.4469 165.081C15.6361 163.859 13.9341 162.455 12.3875 160.908C10.8409 159.361 9.43617 157.659 8.21211 155.849C6.97834 154.02 5.91747 152.068 5.05869 150.041C3.27507 145.827 2.36966 141.346 2.36966 136.73C2.36966 132.114 3.27509 127.635 5.05677 123.421C5.91361 121.394 6.97445 119.442 8.20822 117.613C9.43034 115.803 10.8351 114.101 12.3817 112.554C13.9283 111.007 15.6303 109.603 17.4411 108.379C19.2694 107.143 21.2221 106.082 23.2486 105.225C27.4628 103.442 31.9432 102.536 36.5597 102.536Z" fill="#3858E9"/>
<path d="M36.5596 100.243C31.6342 100.243 26.8546 101.209 22.3567 103.111C20.1942 104.026 18.1094 105.157 16.1606 106.474C14.2293 107.78 12.4127 109.278 10.7612 110.93C9.10967 112.581 7.61164 114.398 6.30598 116.329C4.98867 118.28 3.85594 120.365 2.94276 122.527C1.04061 127.025 0.0749677 131.803 0.0749677 136.73C0.0749677 141.655 1.04061 146.435 2.94276 150.933C3.85789 153.095 4.98867 155.18 6.30598 157.131C7.61164 159.062 9.10967 160.879 10.7612 162.53C12.4127 164.182 14.2293 165.68 16.1606 166.986C18.1113 168.303 20.1961 169.436 22.3567 170.349C26.8546 172.251 31.6323 173.217 36.5596 173.217C41.485 173.217 46.2646 172.251 50.7625 170.349C52.925 169.434 55.0098 168.303 56.9605 166.986C58.8918 165.68 60.7085 164.182 62.36 162.53C64.0115 160.879 65.5095 159.062 66.8152 157.131C68.1325 155.18 69.2652 153.095 70.1784 150.933C72.0806 146.435 73.0462 141.657 73.0462 136.73C73.0462 131.805 72.0806 127.025 70.1784 122.527C69.2633 120.365 68.1325 118.28 66.8152 116.329C65.5095 114.398 64.0115 112.581 62.36 110.93C60.7085 109.278 58.8918 107.78 56.9605 106.474C55.0098 105.157 52.925 104.024 50.7625 103.111C46.2646 101.207 41.4869 100.243 36.5596 100.243ZM36.5596 100.08C41.5083 100.08 46.3074 101.05 50.8247 102.96C52.9969 103.879 55.0895 105.015 57.0499 106.338C58.9909 107.65 60.8153 109.154 62.4727 110.813C64.13 112.472 65.6358 114.295 66.9473 116.236C68.2704 118.194 69.4071 120.289 70.3261 122.461C72.2379 126.978 73.2074 131.779 73.2074 136.728C73.2074 141.677 72.2379 146.476 70.328 150.993C69.409 153.165 68.2724 155.258 66.9492 157.218C65.6377 159.159 64.1339 160.984 62.4746 162.641C60.8173 164.298 58.9929 165.804 57.0519 167.116C55.0934 168.439 52.9989 169.576 50.8267 170.495C46.3093 172.406 41.5083 173.376 36.5596 173.376C31.6109 173.376 26.8118 172.406 22.2945 170.496C20.1223 169.577 18.0297 168.441 16.0693 167.118C14.1283 165.806 12.3039 164.302 10.6465 162.643C8.98919 160.986 7.48342 159.161 6.17193 157.22C4.84879 155.262 3.71216 153.167 2.79315 150.995C0.881288 146.478 -0.0882568 141.677 -0.0882568 136.728C-0.0882568 131.779 0.881287 126.98 2.7912 122.463C3.71022 120.291 4.84684 118.196 6.16999 116.238C7.48148 114.297 8.9853 112.472 10.6446 110.815C12.3019 109.158 14.1263 107.652 16.0673 106.34C18.0258 105.017 20.1203 103.881 22.2926 102.962C26.8118 101.05 31.6109 100.08 36.5596 100.08Z" fill="#3858E9"/>
<path d="M36.5596 97.7157C31.2923 97.7157 26.1843 98.7474 21.3755 100.782C19.0634 101.759 16.8348 102.969 14.7501 104.378C12.6847 105.773 10.7418 107.376 8.97758 109.142C7.21144 110.908 5.61045 112.849 4.21347 114.915C2.80484 116.999 1.59438 119.23 0.617078 121.542C-1.41719 126.351 -2.44887 131.461 -2.44887 136.726C-2.44887 141.992 -1.41719 147.102 0.617078 151.91C1.59438 154.222 2.80484 156.451 4.21347 158.538C5.60851 160.603 7.21144 162.546 8.97758 164.31C10.7437 166.074 12.6847 167.677 14.7501 169.074C16.8348 170.483 19.0654 171.693 21.3755 172.671C26.1843 174.705 31.2943 175.737 36.5596 175.737C41.827 175.737 46.935 174.705 51.7438 172.671C54.0559 171.693 56.2844 170.483 58.3712 169.074C60.4365 167.679 62.3795 166.076 64.1437 164.31C65.9079 162.544 67.5108 160.603 68.9078 158.538C70.3164 156.453 71.5269 154.222 72.5042 151.91C74.5384 147.102 75.5701 141.992 75.5701 136.726C75.5701 131.461 74.5384 126.351 72.5042 121.542C71.5269 119.23 70.3164 117.001 68.9078 114.915C67.5127 112.849 65.9098 110.906 64.1437 109.142C62.3775 107.376 60.4365 105.775 58.3712 104.378C56.2864 102.969 54.0559 101.759 51.7438 100.782C46.9369 98.7474 41.827 97.7157 36.5596 97.7157ZM36.5596 97.6244C41.8386 97.6244 46.9602 98.6581 51.7807 100.698C54.0986 101.677 56.333 102.892 58.4236 104.304C60.4948 105.703 62.4416 107.31 64.2097 109.078C65.9778 110.846 67.5846 112.795 68.9835 114.864C70.396 116.955 71.6085 119.189 72.5896 121.507C74.6278 126.328 75.6634 131.449 75.6634 136.728C75.6634 142.007 74.6297 147.129 72.5896 151.949C71.6104 154.267 70.396 156.502 68.9835 158.592C67.5846 160.663 65.9778 162.61 64.2097 164.378C62.4397 166.148 60.4929 167.753 58.4236 169.152C56.333 170.565 54.0986 171.777 51.7807 172.758C46.9602 174.796 41.8386 175.832 36.5596 175.832C31.2807 175.832 26.159 174.798 21.3386 172.758C19.0207 171.779 16.7863 170.565 14.6957 169.152C12.6245 167.753 10.6777 166.146 8.90764 164.378C7.13761 162.608 5.53275 160.661 4.13383 158.592C2.72131 156.502 1.5089 154.267 0.52771 151.949C-1.51238 147.129 -2.54602 142.007 -2.54602 136.726C-2.54602 131.447 -1.51238 126.326 0.52771 121.505C1.50695 119.187 2.72131 116.953 4.13383 114.862C5.53275 112.791 7.13956 110.844 8.90764 109.076C10.6777 107.306 12.6245 105.701 14.6937 104.302C16.7843 102.89 19.0187 101.677 21.3347 100.696C26.159 98.6581 31.2807 97.6244 36.5596 97.6244Z" fill="#3858E9"/>
<path d="M36.5596 95.1898C30.9523 95.1898 25.512 96.2876 20.3923 98.454C17.9306 99.4954 15.5564 100.784 13.3375 102.284C11.1381 103.77 9.06887 105.476 7.19004 107.355C5.31121 109.233 3.60337 111.303 2.11701 113.502C0.617058 115.723 -0.671132 118.097 -1.71255 120.559C-3.87894 125.68 -4.97669 131.119 -4.97669 136.726C-4.97669 142.333 -3.87894 147.774 -1.71255 152.893C-0.671132 155.355 0.617058 157.729 2.11701 159.95C3.60337 162.15 5.30927 164.219 7.19004 166.098C9.06887 167.976 11.1381 169.684 13.3375 171.169C15.5583 172.669 17.9326 173.957 20.3923 174.998C25.514 177.165 30.9523 178.262 36.5596 178.262C42.1669 178.262 47.6072 177.165 52.7269 174.998C55.1886 173.957 57.5629 172.669 59.7837 171.169C61.9831 169.682 64.0523 167.976 65.9311 166.098C67.81 164.219 69.5178 162.15 71.0022 159.95C72.5022 157.729 73.7903 155.355 74.8318 152.893C76.9982 147.772 78.0959 142.333 78.0959 136.726C78.0959 131.119 76.9982 125.679 74.8318 120.559C73.7903 118.097 72.5022 115.723 71.0022 113.502C69.5159 111.303 67.81 109.233 65.9311 107.355C64.0523 105.476 61.9831 103.768 59.7837 102.284C57.5629 100.784 55.1886 99.4954 52.7269 98.454C47.6072 96.2876 42.1689 95.1898 36.5596 95.1898ZM36.5596 178.288C30.9484 178.288 25.5062 177.188 20.3827 175.022C17.9209 173.98 15.5447 172.69 13.3239 171.19C11.1226 169.704 9.05331 167.996 7.17254 166.115C5.29177 164.234 3.58392 162.165 2.09756 159.964C0.59761 157.741 -0.692501 155.367 -1.73392 152.905C-3.9003 147.781 -5 142.339 -5 136.728C-5 131.117 -3.9003 125.675 -1.73392 120.551C-0.692501 118.089 0.59761 115.713 2.09756 113.492C3.58392 111.291 5.29177 109.222 7.17254 107.341C9.05331 105.46 11.1226 103.752 13.3239 102.266C15.5447 100.764 17.9209 99.476 20.3827 98.4345C25.5062 96.2682 30.9484 95.1685 36.5596 95.1685C42.1708 95.1685 47.613 96.2682 52.7366 98.4345C55.1983 99.476 57.5745 100.766 59.7953 102.266C61.9966 103.752 64.0659 105.46 65.9467 107.341C67.8275 109.222 69.5353 111.291 71.0216 113.492C72.5235 115.715 73.8117 118.089 74.8531 120.551C77.0195 125.675 78.1192 131.117 78.1192 136.728C78.1192 142.339 77.0195 147.781 74.8531 152.905C73.8117 155.367 72.5216 157.743 71.0216 159.964C69.5353 162.165 67.8275 164.234 65.9467 166.115C64.0659 167.996 61.9966 169.704 59.7953 171.19C57.5726 172.692 55.1983 173.98 52.7366 175.022C47.613 177.188 42.1708 178.288 36.5596 178.288Z" fill="#3858E9"/>
</g>
<path d="M631.007 19.4482C631.359 17.3251 631.04 15.4924 630.304 15.3633C629.555 15.2342 628.678 16.8637 628.326 19.0029C627.974 21.139 628.294 22.9588 629.029 23.0878C629.762 23.2169 630.656 21.5875 631.007 19.4482Z" fill="#7E92F1"/>
<path d="M63.8245 10.0921C64.1762 7.96895 63.8568 6.13623 63.1211 6.00717C62.3725 5.8781 61.4949 7.50755 61.1432 9.6468C60.7915 11.7828 61.1109 13.6026 61.8466 13.7317C62.5791 13.8608 63.4728 12.2313 63.8245 10.0921Z" fill="#7E92F1"/>
<path d="M745.647 79.0829C744.017 78.5685 742.181 78.7182 738.453 80.5433C737.919 78.7421 737.981 76.8168 738.629 75.0535C741.585 74.0717 743.428 73.7306 746.426 74.1028C745.568 75.738 745.491 76.8854 745.647 79.0829Z" fill="#EE8134"/>
<path d="M409.436 13.1087C409.582 12.4963 409.593 11.8595 409.469 11.2423C409.345 10.6251 409.089 10.0422 408.717 9.53383C411.983 8.55411 415.373 8.05246 418.782 8.04453C419.494 9.39215 419.827 10.9082 419.745 12.4306C415.776 11.6648 413.222 12.0852 409.436 13.1087Z" fill="url(#paint0_linear_1_8)"/>
<path d="M281.885 17.966C278.2 15.0081 276.084 13.7034 272.148 13.0429C272.866 11.3145 273.053 10.1034 272.593 9.01013C276.904 9.43521 279.673 10.7311 283.858 13.5171C283.602 15.1476 282.922 16.6821 281.885 17.966Z" fill="#FED319"/>
<path d="M775.833 40.6767C776.278 39.6275 775.799 38.4818 774.792 38.1149C773.771 37.748 772.594 38.2887 772.167 39.325C771.722 40.3742 772.201 41.52 773.208 41.8869C774.229 42.2505 775.409 41.7099 775.851 40.6607L775.833 40.6767Z" fill="#324CD3"/>
<path d="M731.537 20.1933C732.96 19.0588 733.421 17.1593 732.582 15.9545C731.742 14.746 729.89 14.6721 728.464 15.8067C727.042 16.9412 726.577 18.8407 727.42 20.0455C728.259 21.254 730.112 21.3279 731.537 20.1933Z" fill="#FF9416"/>
<path d="M173.642 11.204C174.423 9.69284 173.887 7.91885 172.412 7.25524C170.958 6.58836 169.136 7.27167 168.358 8.79927C167.577 10.3104 168.113 12.0779 169.585 12.7448C171.042 13.4116 172.864 12.7283 173.642 11.2007V11.204Z" fill="#EE8134"/>
<path d="M902.861 100.571C904.89 102.39 907.694 102.482 909.148 100.791C910.606 99.1007 910.143 96.2448 908.136 94.4291C906.114 92.6098 903.306 92.5179 901.852 94.2086C900.394 95.8993 900.857 98.7552 902.864 100.571H902.861Z" fill="#324CD3"/>
</g>
<defs>
<filter id="filter0_f_1_8" x="508.938" y="35.8552" width="245.877" height="245.877" filterUnits="userSpaceOnUse" color-interpolation-filters="sRGB">
<feFlood flood-opacity="0" result="BackgroundImageFix"/>
<feBlend mode="normal" in="SourceGraphic" in2="BackgroundImageFix" result="shape"/>
<feGaussianBlur stdDeviation="45" result="effect1_foregroundBlur_1_8"/>
</filter>
<filter id="filter1_f_1_8" x="224.087" y="-165.732" width="245.877" height="245.877" filterUnits="userSpaceOnUse" color-interpolation-filters="sRGB">
<feFlood flood-opacity="0" result="BackgroundImageFix"/>
<feBlend mode="normal" in="SourceGraphic" in2="BackgroundImageFix" result="shape"/>
<feGaussianBlur stdDeviation="45" result="effect1_foregroundBlur_1_8"/>
</filter>
<filter id="filter2_f_1_8" x="663.497" y="-36.8004" width="351.521" height="291.694" filterUnits="userSpaceOnUse" color-interpolation-filters="sRGB">
<feFlood flood-opacity="0" result="BackgroundImageFix"/>
<feBlend mode="normal" in="SourceGraphic" in2="BackgroundImageFix" result="shape"/>
<feGaussianBlur stdDeviation="62" result="effect1_foregroundBlur_1_8"/>
</filter>
<filter id="filter3_f_1_8" x="912.215" y="-147.043" width="364.965" height="296.399" filterUnits="userSpaceOnUse" color-interpolation-filters="sRGB">
<feFlood flood-opacity="0" result="BackgroundImageFix"/>
<feBlend mode="normal" in="SourceGraphic" in2="BackgroundImageFix" result="shape"/>
<feGaussianBlur stdDeviation="62" result="effect1_foregroundBlur_1_8"/>
</filter>
<filter id="filter4_f_1_8" x="463.774" y="-56.4824" width="119.088" height="89.5108" filterUnits="userSpaceOnUse" color-interpolation-filters="sRGB">
<feFlood flood-opacity="0" result="BackgroundImageFix"/>
<feBlend mode="normal" in="SourceGraphic" in2="BackgroundImageFix" result="shape"/>
<feGaussianBlur stdDeviation="17" result="effect1_foregroundBlur_1_8"/>
</filter>
<filter id="filter5_f_1_8" x="19.8648" y="73.1664" width="244.965" height="176.399" filterUnits="userSpaceOnUse" color-interpolation-filters="sRGB">
<feFlood flood-opacity="0" result="BackgroundImageFix"/>
<feBlend mode="normal" in="SourceGraphic" in2="BackgroundImageFix" result="shape"/>
<feGaussianBlur stdDeviation="32" result="effect1_foregroundBlur_1_8"/>
</filter>
<linearGradient id="paint0_linear_1_8" x1="-29474.4" y1="24434.7" x2="-29482.9" y2="24387.5" gradientUnits="userSpaceOnUse">
<stop stop-color="#FF3EB9"/>
<stop offset="0.04" stop-color="#FF44BC"/>
<stop offset="0.7" stop-color="#FF98E3"/>
<stop offset="1" stop-color="#FFB9F2"/>
</linearGradient>
</defs>
</svg>
