<svg width="60" height="60" viewBox="0 0 60 60" fill="none" xmlns="http://www.w3.org/2000/svg">
<path d="M33.6168 35.4387C32.2512 35.3121 30.8774 35.5636 29.6429 36.166C28.4085 36.7686 27.3602 37.6994 26.611 38.8583C26.611 38.8583 40.5432 46.3873 45.587 37.5384C42.4359 40.998 38.7001 35.6287 33.6168 35.4387Z" fill="#6542FF"/>
<path d="M33.6168 35.4387C32.2512 35.3121 30.8774 35.5636 29.6429 36.166C28.4085 36.7686 27.3602 37.6994 26.611 38.8583C26.611 38.8583 40.5432 46.3873 45.587 37.5384C42.4359 40.998 38.7001 35.6287 33.6168 35.4387Z" fill="url(#paint0_linear_274_4097)"/>
<path d="M30.8828 48.6772C33.1817 50.6769 39.2163 58.286 39.2163 58.286C36.0349 59.4249 32.683 60.0033 29.3072 59.9957C25.3882 60.0628 21.4968 59.3224 17.8711 57.8198C14.2454 56.3172 10.9616 54.084 8.22057 51.2568C7.48302 50.5144 6.78825 49.7298 6.13968 48.9071H6.19914C10.4415 50.2564 14.8713 50.9079 19.3188 50.8369C25.4426 50.5469 26.6119 48.0072 28.8911 47.9672C29.2518 47.9444 29.6134 47.9955 29.954 48.1175C30.2946 48.2395 30.6072 48.4299 30.8728 48.6772H30.8828Z" fill="#6542FF"/>
<path d="M30.8828 48.6772C33.1817 50.6769 39.2163 58.286 39.2163 58.286C36.0349 59.4249 32.683 60.0033 29.3072 59.9957C25.3882 60.0628 21.4968 59.3224 17.8711 57.8198C14.2454 56.3172 10.9616 54.084 8.22057 51.2568C7.48302 50.5144 6.78825 49.7298 6.13968 48.9071H6.19914C10.4415 50.2564 14.8713 50.9079 19.3188 50.8369C25.4426 50.5469 26.6119 48.0072 28.8911 47.9672C29.2518 47.9444 29.6134 47.9955 29.954 48.1175C30.2946 48.2395 30.6072 48.4299 30.8728 48.6772H30.8828Z" fill="url(#paint1_linear_274_4097)"/>
<path d="M53.8707 48.8072C57.9428 43.5303 60.1037 37.0066 59.9946 30.3195C60.0715 26.3166 59.3328 22.3404 57.8243 18.6373C56.3158 14.9343 54.0696 11.5834 51.225 8.79219C48.4535 5.95536 45.1415 3.71414 41.4885 2.20361C37.8355 0.693137 33.9173 -0.0553479 29.9698 0.00329842C26.0283 -0.0562845 22.1157 0.691922 18.469 2.20266C14.8223 3.71334 11.5174 5.95507 8.75436 8.79219C5.92048 11.5905 3.68259 14.9431 2.17806 18.6448C0.673516 22.3465 -0.0660714 26.3192 0.00463062 30.3195C-0.112271 37.0247 2.05268 43.5677 6.13838 48.8572C10.4099 50.2345 14.8732 50.9097 19.3572 50.8569C25.2036 50.577 26.5413 48.2673 28.6222 48.0173C26.7513 47.9081 24.9088 47.5032 23.1623 46.8175C21.0575 45.9426 19.1523 44.6429 17.5636 42.9979C15.9297 41.3314 14.6481 39.3476 13.7964 37.1665C12.9448 34.9855 12.5408 32.6527 12.609 30.3095C12.5294 27.9484 12.9277 25.5958 13.7795 23.3952C14.6314 21.1947 15.919 19.1925 17.5636 17.5111C19.1798 15.8732 21.11 14.585 23.2363 13.7254C25.3627 12.8659 27.6404 12.4528 29.9302 12.5117C32.2229 12.4537 34.5034 12.8669 36.6329 13.7264C38.7623 14.5858 40.6961 15.8736 42.3167 17.5111C43.9566 19.196 45.241 21.1987 46.0926 23.3985C46.9442 25.5981 47.3451 27.9492 47.2712 30.3095C47.3331 32.8251 46.753 35.3144 45.5866 37.5386C45.4182 37.8385 45.2398 38.1285 45.0417 38.4185C39.6016 45.8976 26.6701 38.8885 26.6701 38.8885L35.0433 47.7074L40.6321 53.5866V53.6566L40.7411 53.7366L41.8014 54.8665L42.4157 55.4964C43.4123 56.452 44.5864 57.1994 45.8704 57.6952C47.1543 58.1912 48.5228 58.4259 49.8971 58.386C52.8695 58.2906 55.7893 57.5685 58.4685 56.2663L58.6766 56.1862L59.2513 55.5164L53.95 49.997C53.7911 49.845 53.6947 49.6382 53.6801 49.4177C53.6654 49.1973 53.7335 48.9794 53.8707 48.8072Z" fill="url(#paint2_linear_274_4097)"/>
<path opacity="0.3" d="M29.9698 12.4817V0.00329842C26.0283 -0.0562845 22.1157 0.691922 18.469 2.20266C14.8223 3.71334 11.5174 5.95507 8.75436 8.79219C5.92048 11.5905 3.68259 14.9431 2.17806 18.6448C0.673516 22.3465 -0.0660714 26.3192 0.00463062 30.3195C-0.112271 37.0247 2.05268 43.5677 6.13838 48.8572C10.4099 50.2345 14.8732 50.9097 19.3572 50.8569C25.2036 50.577 26.5413 48.2673 28.6222 48.0173C26.7513 47.9081 24.9088 47.5032 23.1623 46.8175C21.0575 45.9426 19.1523 44.6429 17.5636 42.9979C15.9297 41.3314 14.6481 39.3476 13.7964 37.1665C12.9448 34.9855 12.5408 32.6527 12.609 30.3095C12.5293 27.9484 12.9277 25.5958 13.7795 23.3952C14.6314 21.1947 15.919 19.1925 17.5636 17.5111C19.1819 15.8628 21.1174 14.5662 23.251 13.7013C25.3847 12.8363 27.6713 12.4213 29.9698 12.4817Z" fill="url(#paint3_linear_274_4097)"/>
<defs>
<linearGradient id="paint0_linear_274_4097" x1="26.3965" y1="2.40209" x2="45.2918" y2="2.40209" gradientUnits="userSpaceOnUse">
<stop stop-color="#65FFFF"/>
<stop offset="1" stop-color="#4E1FDF" stop-opacity="0.3"/>
</linearGradient>
<linearGradient id="paint1_linear_274_4097" x1="-971844" y1="804235" x2="-970742" y2="804235" gradientUnits="userSpaceOnUse">
<stop stop-color="#65FFFF"/>
<stop offset="1" stop-color="#4E1FDF" stop-opacity="0.3"/>
</linearGradient>
<linearGradient id="paint2_linear_274_4097" x1="2.39865" y1="19.6468" x2="62.6573" y2="19.6468" gradientUnits="userSpaceOnUse">
<stop stop-color="#AB0FD1"/>
<stop offset="0.53" stop-color="#4321E1"/>
<stop offset="1" stop-color="#65A9FF"/>
</linearGradient>
<linearGradient id="paint3_linear_274_4097" x1="9.95441" y1="39.7659" x2="12.7605" y2="0.0504074" gradientUnits="userSpaceOnUse">
<stop/>
<stop offset="1" stop-color="white" stop-opacity="0"/>
</linearGradient>
</defs>
</svg>
