<svg width="57" height="51" viewBox="0 0 57 51" fill="none" xmlns="http://www.w3.org/2000/svg">
<path d="M2.98641 16.3185C2.03829 13.059 3.91197 9.64814 7.1714 8.70002L38.6473 -0.455883C41.9067 -1.40401 45.3176 0.469678 46.2657 3.72911L53.991 30.2869C54.9391 33.5463 53.0654 36.9572 49.806 37.9053L18.3302 47.0612C15.0707 48.0093 11.6598 46.1357 10.7117 42.8762L2.98641 16.3185Z" fill="#6E42D3"/>
<path fill-rule="evenodd" clip-rule="evenodd" d="M2.00279 16.6046C0.896647 12.8019 3.08261 8.82253 6.88528 7.71639L38.3611 -1.43951C42.1638 -2.54566 46.1432 -0.359693 47.2493 3.44298L54.9746 30.0007C56.0808 33.8034 53.8948 37.7828 50.0921 38.8889L18.6163 48.0448C14.8136 49.151 10.8342 46.965 9.72808 43.1623L2.00279 16.6046ZM7.45753 9.68363C4.74133 10.4737 3.17993 13.3161 3.97003 16.0323L11.6953 42.5901C12.4854 45.3063 15.3278 46.8677 18.044 46.0776L49.5199 36.9217C52.2361 36.1316 53.7975 33.2892 53.0074 30.573L45.2821 4.01522C44.492 1.29903 41.6496 -0.262377 38.9334 0.527727L7.45753 9.68363Z" fill="#DAC8FF"/>
<path d="M7.20701 16.1576C6.73295 14.5279 7.66979 12.8224 9.29951 12.3484L38.8081 3.7647C40.4378 3.29064 42.1433 4.22748 42.6174 5.8572L49.4843 29.4641C49.9583 31.0938 49.0215 32.7993 47.3918 33.2733L17.8832 41.857C16.2534 42.331 14.548 41.3942 14.0739 39.7645L7.20701 16.1576Z" fill="white"/>
<path d="M42.9338 23.52L43.4404 25.2615C43.649 25.9788 43.7489 26.6231 43.7401 27.1945C43.7358 27.7646 43.633 28.2637 43.4318 28.6917C43.235 29.1185 42.9546 29.4747 42.5904 29.7606C42.2294 30.0406 41.8001 30.253 41.3026 30.3977C40.9036 30.5138 40.5166 30.5704 40.1414 30.5677C39.7663 30.5651 39.4084 30.4965 39.0679 30.3622C38.7306 30.2221 38.4157 30.0171 38.1233 29.7473C37.8308 29.4774 37.565 29.1317 37.3257 28.7103C37.0909 28.2875 36.8901 27.7893 36.7232 27.2155L36.2166 25.474C36.0053 24.7478 35.9025 24.1019 35.9082 23.5363C35.9183 22.9693 36.024 22.4718 36.2252 22.0438C36.4264 21.6158 36.7075 21.2617 37.0685 20.9817C37.434 20.7003 37.8655 20.4873 38.3631 20.3426C38.762 20.2265 39.1469 20.1705 39.5175 20.1745C39.8927 20.1772 40.2505 20.2457 40.591 20.38C40.9315 20.5144 41.2458 20.7171 41.5337 20.9883C41.8261 21.2581 42.0897 21.6044 42.3245 22.0272C42.5625 22.4442 42.7656 22.9418 42.9338 23.52ZM41.4188 26.134L40.7557 23.8546C40.658 23.5184 40.553 23.2329 40.441 22.9981C40.3321 22.7575 40.2164 22.5602 40.0938 22.4062C39.9757 22.251 39.8494 22.1346 39.715 22.057C39.5806 21.9794 39.439 21.9355 39.2902 21.9253C39.1446 21.9093 38.9933 21.9241 38.8364 21.9698C38.6392 22.0271 38.4738 22.119 38.3404 22.2453C38.207 22.3716 38.1119 22.5379 38.0552 22.744C37.9972 22.9456 37.9814 23.2006 38.0079 23.5089C38.0375 23.8115 38.113 24.1712 38.2343 24.5881L38.8973 26.8675C38.9951 27.2037 39.0984 27.4921 39.2073 27.7327C39.3207 27.972 39.4371 28.1715 39.5565 28.3312C39.679 28.4852 39.8082 28.6032 39.9439 28.6853C40.0783 28.7629 40.2199 28.8068 40.3687 28.817C40.5175 28.8272 40.6704 28.8094 40.8273 28.7638C41.0245 28.7064 41.1883 28.6175 41.3185 28.4969C41.4474 28.3719 41.5403 28.2063 41.597 28.0002C41.6569 27.7883 41.6714 27.5289 41.6404 27.2218C41.6139 26.9135 41.5401 26.5509 41.4188 26.134Z" fill="#6E42D3"/>
<path d="M34.8205 31.0581C34.7318 30.7533 34.7651 30.4664 34.9202 30.1977C35.0799 29.9276 35.3346 29.7417 35.6842 29.64C36.0383 29.5369 36.3507 29.5579 36.6214 29.7028C36.8966 29.8464 37.0785 30.0706 37.1671 30.3755C37.2545 30.6758 37.2206 30.9604 37.0654 31.2292C36.9147 31.4966 36.6623 31.6819 36.3082 31.7849C35.9585 31.8866 35.6439 31.8663 35.3642 31.724C35.0891 31.5804 34.9078 31.3584 34.8205 31.0581Z" fill="#6E42D3"/>
<path d="M33.1012 26.3802L33.6078 28.1217C33.8164 28.839 33.9163 29.4833 33.9075 30.0547C33.9032 30.6248 33.8004 31.1239 33.5992 31.5519C33.4024 31.9787 33.122 32.3349 32.7578 32.6208C32.3968 32.9008 31.9676 33.1132 31.47 33.2579C31.071 33.374 30.684 33.4306 30.3088 33.4279C29.9337 33.4253 29.5758 33.3567 29.2353 33.2224C28.898 33.0823 28.5831 32.8773 28.2907 32.6075C27.9983 32.3376 27.7324 31.9919 27.4931 31.5705C27.2583 31.1477 27.0575 30.6495 26.8906 30.0757L26.384 28.3342C26.1727 27.608 26.0699 26.9621 26.0756 26.3965C26.0857 25.8295 26.1914 25.332 26.3926 24.904C26.5938 24.476 26.875 24.1219 27.2359 23.8419C27.6014 23.5605 28.0329 23.3475 28.5305 23.2028C28.9294 23.0867 29.3143 23.0307 29.6849 23.0347C30.0601 23.0374 30.4179 23.1059 30.7584 23.2402C31.0989 23.3746 31.4132 23.5773 31.7011 23.8485C31.9935 24.1183 32.2571 24.4646 32.4919 24.8874C32.7299 25.3044 32.933 25.802 33.1012 26.3802ZM31.5862 28.9942L30.9232 26.7148C30.8254 26.3786 30.7204 26.0931 30.6084 25.8583C30.4995 25.6177 30.3838 25.4204 30.2612 25.2664C30.1431 25.1112 30.0168 24.9948 29.8825 24.9172C29.7481 24.8396 29.6064 24.7957 29.4576 24.7855C29.312 24.7695 29.1607 24.7843 29.0038 24.83C28.8066 24.8873 28.6413 24.9792 28.5078 25.1055C28.3744 25.2318 28.2793 25.3981 28.2226 25.6042C28.1646 25.8058 28.1488 26.0608 28.1753 26.3691C28.2049 26.6717 28.2804 27.0314 28.4017 27.4483L29.0647 29.7277C29.1625 30.0639 29.2659 30.3523 29.3747 30.5929C29.4881 30.8322 29.6045 31.0317 29.7239 31.1914C29.8465 31.3454 29.9756 31.4634 30.1113 31.5455C30.2457 31.6231 30.3873 31.667 30.5361 31.6772C30.6849 31.6874 30.8378 31.6696 30.9947 31.624C31.1919 31.5666 31.3557 31.4777 31.4859 31.3571C31.6149 31.2321 31.7077 31.0665 31.7644 30.8604C31.8243 30.6485 31.8388 30.3891 31.8078 30.082C31.7814 29.7737 31.7075 29.4111 31.5862 28.9942Z" fill="#6E42D3"/>
<path d="M24.9879 33.9182C24.8992 33.6134 24.9325 33.3266 25.0877 33.0578C25.2473 32.7877 25.502 32.6018 25.8516 32.5001C26.2058 32.3971 26.5182 32.4181 26.7888 32.563C27.064 32.7066 27.2459 32.9308 27.3345 33.2356C27.4219 33.536 27.388 33.8205 27.2328 34.0893C27.0821 34.3568 26.8297 34.5421 26.4756 34.6451C26.1259 34.7468 25.8113 34.7265 25.5316 34.5842C25.2565 34.4406 25.0752 34.2186 24.9879 33.9182Z" fill="#6E42D3"/>
<path d="M18.5963 30.5776L19.6654 30.2666C19.9703 30.1779 20.2056 30.0511 20.3716 29.8862C20.542 29.7199 20.6456 29.5245 20.6824 29.2999C20.7236 29.0739 20.7058 28.8287 20.6288 28.5643C20.5623 28.3356 20.4582 28.1447 20.3164 27.9915C20.1746 27.8383 19.9968 27.7368 19.783 27.6872C19.5724 27.6318 19.3236 27.6458 19.0367 27.7292C18.8305 27.7892 18.6457 27.8892 18.4822 28.0291C18.3219 28.1633 18.2063 28.3257 18.1354 28.5165C18.0631 28.7028 18.0583 28.9036 18.1209 29.1187L16.0163 29.7309C15.8572 29.1841 15.8676 28.6681 16.0474 28.1831C16.2317 27.6968 16.5391 27.2743 16.9696 26.9157C17.4033 26.5513 17.9137 26.2837 18.5009 26.1129C19.1778 25.916 19.8031 25.8508 20.3767 25.9173C20.9535 25.9781 21.4437 26.1758 21.8474 26.5105C22.2542 26.8395 22.5463 27.3088 22.7237 27.9184C22.8162 28.2367 22.8293 28.5659 22.763 28.9061C22.6998 29.2405 22.5625 29.5625 22.3511 29.8719C22.1429 30.1756 21.8678 30.4501 21.5259 30.6954C21.1871 30.9349 20.7869 31.1218 20.3252 31.2561L18.9132 31.6669L18.5963 30.5776ZM19.056 32.1577L18.745 31.0886L20.157 30.6779C20.668 30.5292 21.1422 30.4545 21.5796 30.4537C22.0169 30.4529 22.4087 30.5212 22.755 30.6587C23.1013 30.7962 23.3941 31.0004 23.6333 31.2711C23.8725 31.5419 24.0481 31.87 24.1603 32.2555C24.2933 32.7128 24.3223 33.1468 24.2473 33.5575C24.1723 33.9683 24.0093 34.3439 23.7583 34.6843C23.5072 35.0247 23.1832 35.3232 22.7862 35.5797C22.3879 35.8317 21.9355 36.0313 21.4289 36.1787C21.021 36.2974 20.599 36.3593 20.163 36.3646C19.727 36.3699 19.3121 36.3058 18.9183 36.1724C18.5233 36.0345 18.1757 35.8172 17.8754 35.5204C17.5739 35.2192 17.3514 34.822 17.2079 34.3289L19.3125 33.7167C19.379 33.9453 19.4973 34.1346 19.6673 34.2845C19.8405 34.4286 20.0458 34.5244 20.2833 34.572C20.524 34.6138 20.7676 34.5989 21.0142 34.5272C21.31 34.4411 21.5454 34.3143 21.7203 34.1467C21.8984 33.9734 22.0132 33.7747 22.0647 33.5506C22.1207 33.3253 22.1122 33.0871 22.0392 32.8361C21.9401 32.4954 21.8 32.2395 21.619 32.0685C21.4412 31.8918 21.2265 31.7889 20.975 31.76C20.7222 31.7265 20.4389 31.7555 20.1251 31.8467L19.056 32.1577Z" fill="#6E42D3"/>
<path d="M37.3466 12.261L38.5355 16.3483L37.647 16.6067L36.1353 11.4101L36.9758 11.1656L37.3466 12.261ZM37.5111 13.6145L37.1371 13.7076C37.0369 13.3513 36.9942 13.0077 37.0091 12.677C37.0231 12.343 37.0904 12.0369 37.2109 11.7588C37.3314 11.4806 37.502 11.2434 37.7228 11.0473C37.9458 10.8469 38.2142 10.7011 38.528 10.6099C38.7842 10.5354 39.0249 10.5035 39.2504 10.5144C39.4748 10.522 39.681 10.5801 39.8689 10.6887C40.0599 10.7963 40.2288 10.959 40.3755 11.1768C40.5213 11.3914 40.644 11.67 40.7436 12.0126L41.7342 15.4178L40.8409 15.6777L39.8475 12.2628C39.7684 11.9907 39.665 11.7846 39.5375 11.6446C39.409 11.5014 39.2572 11.4153 39.0821 11.3864C38.906 11.3542 38.7059 11.3708 38.4818 11.4359C38.2609 11.5002 38.0727 11.6053 37.9172 11.7513C37.7649 11.8963 37.6468 12.0695 37.5631 12.271C37.4825 12.4716 37.4361 12.6882 37.4239 12.921C37.414 13.1496 37.4431 13.3807 37.5111 13.6145Z" fill="#9B8ABE"/>
<path d="M31.4563 15.6518L31.4242 15.5414C31.3152 15.1667 31.2686 14.8035 31.2843 14.4517C31.2991 14.0966 31.3745 13.7708 31.5105 13.4742C31.6456 13.1745 31.8397 12.9166 32.0929 12.7006C32.3451 12.4813 32.6522 12.3191 33.014 12.2138C33.379 12.1077 33.7267 12.0794 34.0572 12.1292C34.39 12.1748 34.6938 12.2878 34.9685 12.4683C35.2456 12.6447 35.4856 12.8788 35.6885 13.1705C35.8905 13.4591 36.046 13.7906 36.155 14.1652L36.1871 14.2757C36.2961 14.6503 36.3427 15.0136 36.327 15.3654C36.3112 15.7173 36.2342 16.0436 36.096 16.3442C35.96 16.6408 35.7658 16.8987 35.5136 17.1179C35.2636 17.333 34.9561 17.4937 34.5911 17.5998C34.2261 17.706 33.8788 17.7358 33.5492 17.6893C33.2187 17.6396 32.915 17.5265 32.6379 17.3501C32.3632 17.1696 32.1248 16.9351 31.9228 16.6465C31.7208 16.358 31.5653 16.0265 31.4563 15.6518ZM32.3127 15.2829L32.3448 15.3934C32.4203 15.6527 32.5219 15.8888 32.6498 16.1017C32.7768 16.3113 32.9267 16.4865 33.0996 16.6272C33.2757 16.767 33.4715 16.8611 33.687 16.9095C33.9016 16.9548 34.1322 16.9415 34.3787 16.8698C34.6221 16.799 34.8206 16.6874 34.9742 16.5351C35.1301 16.3786 35.2433 16.1946 35.3137 15.9831C35.3842 15.7716 35.4168 15.5434 35.4115 15.2983C35.4084 15.0492 35.3692 14.7949 35.2938 14.5356L35.2616 14.4251C35.1871 14.169 35.0848 13.9365 34.9546 13.7278C34.8267 13.515 34.6747 13.3387 34.4986 13.1989C34.3248 13.055 34.1301 12.9588 33.9146 12.9104C33.7023 12.861 33.4729 12.8722 33.2263 12.9439C32.983 13.0147 32.7834 13.1283 32.6275 13.2848C32.4747 13.4403 32.362 13.6259 32.2893 13.8415C32.2189 14.053 32.1868 14.2829 32.193 14.5311C32.1983 14.7762 32.2382 15.0268 32.3127 15.2829Z" fill="#9B8ABE"/>
<path d="M29.8861 13.2278L31.3977 18.4245L30.5044 18.6844L28.9927 13.4877L29.8861 13.2278ZM28.5245 12.1288C28.4826 11.9847 28.4905 11.8505 28.548 11.7261C28.6088 11.6008 28.7257 11.5129 28.8986 11.4626C29.0683 11.4133 29.2124 11.4252 29.3309 11.4984C29.4526 11.5706 29.5344 11.6788 29.5764 11.8229C29.6164 11.9606 29.6044 12.0925 29.5405 12.2188C29.4788 12.3409 29.363 12.4267 29.1933 12.476C29.0204 12.5263 28.8752 12.5165 28.7576 12.4465C28.6423 12.3724 28.5646 12.2665 28.5245 12.1288Z" fill="#9B8ABE"/>
<path d="M28.3692 17.8104C28.332 17.6824 28.2687 17.5723 28.1794 17.4802C28.0923 17.3839 27.9493 17.3161 27.7504 17.2768C27.5536 17.2333 27.2742 17.2278 26.9121 17.2602C26.6062 17.2832 26.3243 17.287 26.0663 17.2718C25.8116 17.2556 25.5853 17.212 25.3876 17.141C25.193 17.0691 25.0292 16.9657 24.8962 16.8308C24.7632 16.6958 24.6655 16.5211 24.6031 16.3065C24.5434 16.1016 24.5319 15.8949 24.5685 15.6863C24.6083 15.4768 24.6909 15.2774 24.8164 15.088C24.9451 14.8978 25.1163 14.7282 25.33 14.5792C25.5436 14.4302 25.7961 14.3134 26.0875 14.2286C26.5038 14.1075 26.8806 14.0778 27.218 14.1394C27.5554 14.201 27.8384 14.3323 28.0671 14.5332C28.2947 14.7309 28.4519 14.9786 28.5385 15.2764L27.65 15.5348C27.6081 15.3908 27.5243 15.2641 27.3988 15.1547C27.2755 15.0413 27.1191 14.9634 26.9297 14.9213C26.7436 14.8782 26.5336 14.8907 26.2999 14.9587C26.0533 15.0304 25.8644 15.127 25.733 15.2486C25.604 15.366 25.521 15.4926 25.4841 15.6283C25.4504 15.7632 25.4521 15.8946 25.4894 16.0227C25.5173 16.1187 25.5585 16.2005 25.6129 16.2681C25.6695 16.3315 25.7504 16.3826 25.8555 16.4215C25.9596 16.4572 26.098 16.4794 26.2708 16.4882C26.4435 16.497 26.6594 16.4932 26.9186 16.4769C27.3724 16.4491 27.7565 16.4623 28.071 16.5167C28.3855 16.5711 28.6384 16.6764 28.8297 16.8326C29.021 16.9888 29.1571 17.2062 29.2382 17.4847C29.3043 17.7121 29.3168 17.9342 29.2757 18.151C29.2378 18.3669 29.1492 18.5698 29.01 18.7597C28.873 18.9454 28.6924 19.1125 28.4682 19.2611C28.2463 19.4055 27.9832 19.5219 27.6791 19.6104C27.2212 19.7436 26.81 19.7747 26.4455 19.7036C26.081 19.6325 25.7794 19.491 25.5407 19.2792C25.3019 19.0673 25.1407 18.8173 25.0568 18.5291L25.9502 18.2693C26.0338 18.5089 26.1605 18.6821 26.3305 18.7889C26.4996 18.8926 26.6858 18.9478 26.8892 18.9546C27.0917 18.9582 27.2842 18.9335 27.4667 18.8804C27.71 18.8096 27.904 18.7184 28.0487 18.6069C28.1966 18.4944 28.2974 18.3696 28.3513 18.2324C28.4052 18.0952 28.4111 17.9545 28.3692 17.8104Z" fill="#9B8ABE"/>
<path d="M22.4191 16.2855L23.6932 20.6657L22.8047 20.9241L21.293 15.7275L22.1575 15.476L22.4191 16.2855ZM23.7965 14.968L24.032 15.7955C23.9537 15.8009 23.8805 15.8118 23.8123 15.8281C23.7464 15.8403 23.6718 15.8586 23.5886 15.8828C23.3837 15.9424 23.2121 16.027 23.0738 16.1367C22.9355 16.2464 22.8287 16.3747 22.7534 16.5216C22.6781 16.6686 22.6317 16.8314 22.6142 17.0101C22.599 17.1847 22.6093 17.3692 22.645 17.5637L22.4372 17.7805C22.3459 17.4667 22.2906 17.1633 22.2714 16.8702C22.2553 16.5762 22.2822 16.3045 22.352 16.055C22.4209 15.8022 22.5389 15.5873 22.7062 15.4102C22.8757 15.2289 23.1014 15.0973 23.3831 15.0153C23.4472 14.9967 23.5231 14.9833 23.6111 14.975C23.698 14.9636 23.7599 14.9613 23.7965 14.968Z" fill="#9B8ABE"/>
<path d="M20.1667 21.7957C19.8048 21.9009 19.4589 21.9355 19.129 21.8996C18.8013 21.8594 18.4992 21.758 18.2227 21.5954C17.9493 21.4318 17.7119 21.2126 17.5105 20.9378C17.309 20.663 17.1551 20.3431 17.049 19.9781L16.9903 19.7764C16.8674 19.3538 16.8203 18.9594 16.8493 18.5933C16.8773 18.2239 16.965 17.8928 17.1125 17.5999C17.26 17.3069 17.4526 17.0616 17.6903 16.864C17.928 16.6664 18.1925 16.5252 18.4839 16.4404C18.8553 16.3324 19.1941 16.3033 19.5003 16.3531C19.8097 16.402 20.0844 16.5166 20.3244 16.6968C20.5634 16.8739 20.7697 17.1056 20.9433 17.3919C21.116 17.6751 21.2554 17.9992 21.3616 18.3642L21.4775 18.7628L17.5968 19.8917L17.3859 19.1665L20.378 18.2961L20.3585 18.2288C20.2786 18.002 20.1654 17.7919 20.0188 17.5984C19.8754 17.4039 19.6952 17.2619 19.4781 17.1722C19.261 17.0825 19.0004 17.082 18.6962 17.1704C18.4945 17.2291 18.3214 17.3264 18.1768 17.4622C18.0313 17.5948 17.922 17.762 17.8487 17.9639C17.7755 18.1658 17.7402 18.3966 17.7428 18.6563C17.7454 18.916 17.7923 19.2028 17.8836 19.5165L17.9423 19.7183C18.014 19.9648 18.1152 20.1872 18.2457 20.3853C18.3786 20.5794 18.5344 20.7389 18.7132 20.8641C18.8951 20.9882 19.0941 21.0693 19.31 21.1072C19.5291 21.1442 19.7604 21.1272 20.0037 21.0565C20.3175 20.9652 20.5646 20.8238 20.7451 20.6324C20.9256 20.441 21.0663 20.2143 21.1672 19.9523L21.8294 20.2233C21.7667 20.4256 21.6713 20.6287 21.5431 20.8327C21.4149 21.0367 21.2383 21.2235 21.0133 21.3931C20.7915 21.5618 20.5093 21.696 20.1667 21.7957Z" fill="#9B8ABE"/>
<path d="M14.4072 22.2156L14.7422 15.6848L15.746 15.3928L15.1914 23.1387L14.4758 23.3469L14.4072 22.2156ZM10.7558 16.8443L14.5224 22.1821L15.0857 23.1695L14.3701 23.3776L9.75204 17.1363L10.7558 16.8443Z" fill="#9B8ABE"/>
</svg>
