<svg width="208" height="48" viewBox="0 0 208 48" fill="none" xmlns="http://www.w3.org/2000/svg">
<path d="M22.922 11.0812C31.6002 11.4989 38.7557 14.8274 43.9169 22.0233C44.2133 22.4411 44.4694 22.9127 44.7658 23.3304C45.0892 23.7886 45.0623 24.1929 44.7793 24.678C42.7715 28.0065 40.1302 30.715 36.8422 32.7768C31.6676 36.0244 26.0079 37.3854 19.9573 36.779C11.7238 35.957 5.13424 32.2378 0.471699 25.2844C-0.148176 24.3546 -0.161652 23.6539 0.458224 22.7106C4.40656 16.7813 9.90459 13.1968 16.8041 11.6741C18.8119 11.2429 20.8467 11.0677 22.922 11.0812ZM22.4368 35.2428C28.2313 35.2428 33.5811 31.2136 33.7024 23.9099C33.8102 17.7785 28.6221 12.7252 22.4503 12.7117C16.2516 12.6982 11.05 17.792 11.1578 23.9234C11.2926 31.2541 16.6963 35.2428 22.4368 35.2428ZM30.886 14.1805C36.8018 19.1395 36.7479 29.0575 30.8591 33.8279C30.8725 33.8279 30.886 33.8548 30.8995 33.8414C30.9803 33.8279 31.0612 33.8009 31.1421 33.774C36.1819 31.9548 40.1572 28.788 43.0814 24.3007C43.2566 24.0312 43.1757 23.856 43.0275 23.6269C41.4239 21.1339 39.416 19.0317 37.0174 17.3069C35.1578 15.9458 33.1095 14.8947 30.886 14.1805ZM13.9472 14.2479C13.8664 14.2344 13.8394 14.221 13.8125 14.221C13.7047 14.2479 13.5834 14.2883 13.4756 14.3288C8.54355 16.1614 4.64912 19.3012 1.77883 23.7078C1.60365 23.9773 1.6845 24.1524 1.83273 24.3815C4.43351 28.3838 7.92368 31.3214 12.2898 33.2215C12.8153 33.4506 13.3543 33.6392 13.8933 33.8414C8.15276 28.9363 8.07191 19.2743 13.9472 14.2479Z" fill="#004975"/>
<path d="M16.0225 24.0716C16.0359 20.4736 18.5424 17.5764 22.6659 17.5494C22.8276 17.5494 23.0028 17.6437 23.1645 17.6168C23.4205 17.5764 23.744 17.5359 23.9191 17.3742C25.4149 16.0401 27.598 16.0401 28.9859 17.4147C30.4144 18.8296 30.4278 20.9991 29.0398 22.5488C28.8916 22.7105 28.7838 23.007 28.8242 23.2091C29.3363 26.066 27.3284 29.6909 23.5957 30.3377C19.5261 31.0519 16.1033 28.1816 16.0225 24.0716ZM26.5738 23.6269C24.3773 23.6943 22.639 21.8885 22.8276 19.719C22.868 19.2608 22.7602 19.1395 22.3021 19.153C19.6743 19.2878 17.8282 21.08 17.6395 23.7347C17.4509 26.4972 19.5126 28.7476 22.3155 28.8419C24.9837 28.9362 27.288 26.6724 27.2611 24.0042C27.2611 23.6538 27.1398 23.546 26.8164 23.6134C26.7355 23.6269 26.6412 23.6269 26.5738 23.6269ZM26.4525 21.9963C27.571 21.9963 28.42 21.1339 28.4065 20.002C28.393 18.897 27.5306 18.0211 26.4256 18.0211C25.2936 18.0076 24.4447 18.8565 24.4447 19.9885C24.4447 21.1204 25.3206 21.9963 26.4525 21.9963Z" fill="#004975"/>
<circle cx="26.4004" cy="20" r="2" fill="#FFDF51"/>
<path d="M62.65 33V14.75H65.1V33H62.65ZM64.6 33V30.8H73.45V33H64.6ZM64.6 24.825V22.625H72.675V24.825H64.6ZM64.6 16.95V14.75H73.2V16.95H64.6ZM86.1902 25.9L80.3902 14.75H82.9402L87.8402 24.3L86.8902 24.025H89.8402L88.8402 24.3L93.4402 14.75H95.8402L90.3902 25.9H86.1902ZM87.0902 33V25.4H89.4902V33H87.0902ZM103.949 33V14.75H106.399V33H103.949ZM105.899 33V30.8H114.749V33H105.899ZM105.899 24.825V22.625H113.974V24.825H105.899ZM105.899 16.95V14.75H114.499V16.95H105.899ZM131.718 33.45C130.051 33.45 128.626 33.1583 127.443 32.575C126.276 31.9917 125.334 31.2333 124.618 30.3C123.901 29.3667 123.376 28.3583 123.043 27.275C122.709 26.175 122.543 25.1167 122.543 24.1V23.55C122.543 22.45 122.709 21.35 123.043 20.25C123.393 19.15 123.926 18.15 124.643 17.25C125.359 16.35 126.293 15.625 127.443 15.075C128.593 14.525 129.968 14.25 131.568 14.25C133.201 14.25 134.601 14.5333 135.768 15.1C136.934 15.6667 137.859 16.4583 138.543 17.475C139.226 18.4917 139.643 19.6917 139.793 21.075H137.293C137.159 20.0417 136.826 19.1917 136.293 18.525C135.759 17.8417 135.084 17.3333 134.268 17C133.468 16.6667 132.568 16.5 131.568 16.5C130.484 16.5 129.534 16.6917 128.718 17.075C127.901 17.4417 127.218 17.9667 126.668 18.65C126.134 19.3167 125.726 20.0917 125.443 20.975C125.176 21.8583 125.043 22.8167 125.043 23.85C125.043 24.8333 125.176 25.7667 125.443 26.65C125.726 27.5333 126.143 28.3167 126.693 29C127.259 29.6833 127.959 30.225 128.793 30.625C129.626 31.0083 130.601 31.2 131.718 31.2C133.284 31.2 134.601 30.8083 135.668 30.025C136.734 29.2417 137.384 28.1083 137.618 26.625H140.118C139.951 27.875 139.526 29.0167 138.843 30.05C138.176 31.0833 137.243 31.9083 136.043 32.525C134.859 33.1417 133.418 33.45 131.718 33.45ZM146.569 33L153.144 14.75H157.294L164.069 33H161.544L155.419 16.35L156.619 16.95H153.669L154.944 16.35L149.019 33H146.569ZM150.494 27.55L151.319 25.35H159.194L160.019 27.55H150.494ZM172.416 33V14.65H174.866V33H172.416ZM183.691 33L177.641 24.875H180.516L186.666 33H183.691ZM173.941 26.4V24.225H178.841C179.607 24.225 180.266 24.0667 180.816 23.75C181.366 23.4333 181.791 23 182.091 22.45C182.391 21.8833 182.541 21.2417 182.541 20.525C182.541 19.8083 182.391 19.175 182.091 18.625C181.791 18.0583 181.366 17.6167 180.816 17.3C180.266 16.9667 179.607 16.8 178.841 16.8H173.941V14.65H178.391C179.724 14.65 180.891 14.85 181.891 15.25C182.891 15.65 183.666 16.2667 184.216 17.1C184.766 17.9333 185.041 19.0083 185.041 20.325V20.725C185.041 22.0417 184.757 23.1167 184.191 23.95C183.641 24.7833 182.866 25.4 181.866 25.8C180.882 26.2 179.724 26.4 178.391 26.4H173.941ZM194.921 33V14.75H197.371V33H194.921ZM196.871 33V30.8H205.721V33H196.871ZM196.871 24.825V22.625H204.946V24.825H196.871ZM196.871 16.95V14.75H205.471V16.95H196.871Z" fill="#1A1A1A"/>
</svg>
