<svg width="80" height="80" viewBox="0 0 80 80" fill="none" xmlns="http://www.w3.org/2000/svg">
<g clip-path="url(#clip0_155_123)">
<path d="M14.979 21.7455C18.77 21.7455 21.8431 18.6724 21.8431 14.8815C21.8431 11.0912 18.77 8.01807 14.979 8.01807C11.1887 8.01807 8.11562 11.0912 8.11562 14.8815C8.12017 18.6705 11.19 21.741 14.979 21.7455ZM14.979 10.6815C17.2991 10.6815 19.1796 12.562 19.1796 14.8815C19.1796 17.2016 17.2991 19.0821 14.979 19.0821C12.6596 19.0821 10.779 17.2016 10.779 14.8815C10.7816 12.5633 12.6609 10.6847 14.979 10.6815Z" fill="#0073A9"/>
<path d="M74.6961 59.1585L74.1817 45.7217L76.6878 42.2754L73.6492 36.6897L74.2591 34.8125L80.0002 32.0795V26.5159L74.2591 23.7829L73.6492 21.9056L76.6878 16.32L73.417 11.8216L67.1662 12.9842L65.5685 11.8229L64.7427 5.51998L59.4555 3.80071L55.0813 8.41489H53.1071L48.7329 3.80071L43.4444 5.51998L43.1862 7.48568L24.6898 6.38416L23.4433 5.13763L23.0987 2.3409L18.1074 0.266602L15.8835 2.00407H14.0804L11.8507 0.266602L6.85673 2.3383L6.5134 5.13503L5.235 6.41342L2.43828 6.7574L0.363327 11.7539L2.10405 13.983V15.79L0.363327 18.01L2.01366 21.9908L0.176055 45.5513C0.134439 45.8518 0.11103 46.1541 0.105178 46.4565V46.5059H0.0973747V46.61C0.0934731 49.3117 1.4577 51.8321 3.72187 53.3069C5.98604 54.7817 8.84324 55.0099 11.3129 53.9142L19.1939 50.6305C17.9168 54.2361 19.3923 58.2403 22.7046 60.1547L10.5313 64.077C6.50429 64.88 3.74203 68.6053 4.14258 72.6922C4.54314 76.779 7.97646 79.8963 12.0828 79.9028H12.153L61.1897 77.331L61.9407 79.1316L66.1752 80.0003L69.6124 76.6613L70.4876 76.3713L75.2403 76.9838L78.1105 73.7501L76.9368 69.1041L77.1234 68.1996L80.0294 64.3898L78.6684 60.288L74.6961 59.1585ZM45.8653 7.53185L47.9565 6.85299L51.962 11.0783H56.2237L60.2293 6.85299L62.3218 7.53185L63.0767 13.3054L66.5257 15.8115L72.2518 14.7464L73.5425 16.5242L70.762 21.6403L72.0801 25.6953L77.3367 28.1988V30.3966L72.0801 32.9001L70.762 36.955L73.5425 42.0699L72.2518 43.8477L66.5257 42.7826L63.0767 45.2886L62.3218 51.0616L60.2293 51.7411L56.2237 47.5158H51.962L47.9565 51.7411L45.8653 51.0616L45.109 45.2912L41.6601 42.7839L35.9333 43.849L34.6419 42.0712L37.4224 36.9576L36.1056 32.9014L30.849 30.3979V28.2001L36.1056 25.6966L37.4224 21.6403L34.6419 16.5268L35.9333 14.749L41.6601 15.8141L45.109 13.3041L45.8653 7.53185ZM3.42666 11.3397L4.30515 9.20885L6.47503 8.94224L9.04742 6.37375L9.31402 4.20452L11.4449 3.32538L13.1668 4.6701H16.8088L18.5229 3.32928L20.6537 4.20842L20.9197 6.37636L23.4862 8.9494L25.6555 9.21535L26.5359 11.3462L25.1905 13.0681V16.7101L26.5359 18.432L25.6555 20.5629L23.4862 20.8295L20.9132 23.4025L20.6466 25.5718L18.5164 26.4515L16.7945 25.1068H13.159L11.4364 26.4515L9.30622 25.5718L9.03962 23.4025L6.46918 20.8158L4.30124 20.5499L3.42276 18.419L4.76747 16.6971V13.0616L3.42666 11.3397ZM2.7608 46.634L2.77641 46.4259C3.04496 43.6819 5.473 41.6648 8.2203 41.9047C10.9676 42.1447 13.0094 44.5519 12.7974 47.3018C12.5861 50.0511 10.2003 52.1176 7.44911 51.9349C4.69725 51.7515 2.60604 49.3872 2.7608 46.634ZM26.7316 47.9417C29.6734 47.9417 32.0585 50.3268 32.0585 53.2685C32.0585 56.2103 29.6734 58.5954 26.7316 58.5954C23.7892 58.5954 21.4048 56.2103 21.4048 53.2685C21.4048 50.3268 23.7892 47.9417 26.7316 47.9417ZM6.75594 71.9125C6.76179 69.8434 7.96541 67.9655 9.84268 67.0955L11.1302 66.6812C13.1037 66.3308 15.1065 67.1189 16.312 68.7198C17.5176 70.3213 17.7205 72.4639 16.8381 74.2632C15.955 76.0624 14.1356 77.2127 12.1322 77.2394H12.0665C9.13065 77.2303 6.75594 74.8484 6.75594 71.9125ZM18.307 76.9103C19.759 75.1124 20.3585 72.7721 19.9502 70.4976C19.5412 68.223 18.1639 66.2378 16.1761 65.0582L29.1831 60.8739C31.9928 59.9973 34.0931 57.646 34.6491 54.7556C35.205 51.8653 34.1269 48.9034 31.8433 47.0463C29.5589 45.1898 26.439 44.7392 23.7229 45.8732L15.6319 49.2454C16.8004 45.92 15.6475 42.2221 12.7961 40.1497C9.94412 38.078 6.07123 38.1242 3.2693 40.2629L4.60101 23.2731L5.24671 23.3531L6.5251 24.6315L6.86908 27.4282L11.8643 29.4947L14.0882 27.7637H15.8952L18.1178 29.4947L23.0987 27.4334L23.4433 24.6367L24.7217 23.3583L27.5184 23.013L29.5856 18.021L27.854 15.7978V13.983L29.5856 11.7591L28.5627 9.28753L42.8455 10.1329L42.6244 11.8242L41.0261 12.9842L34.7765 11.8216L31.5058 16.32L34.5431 21.9056L33.9345 23.779L28.1934 26.5159V32.0795L33.9332 34.8125L34.5431 36.6897L31.5058 42.2754L34.7765 46.7738L41.0261 45.6112L42.6244 46.7712L43.4496 53.0754L48.7381 54.7947L53.1129 50.1805H55.0865L59.4607 54.7947L64.7492 53.0754L65.575 46.7725L67.1727 45.6112L71.5515 46.4259L71.8701 54.7589L71.53 53.9448L67.2943 53.0741L63.8492 56.4112L62.974 56.7031L58.2213 56.0906L55.3511 59.3237L56.5222 63.9703L56.3356 64.8742L53.4296 68.6834L54.7945 72.7858L59.4035 74.0967L60.0947 74.7092V74.7183L18.307 76.9103ZM74.6388 67.0675L74.2071 69.1639L75.1831 73.0348L74.183 74.1604L70.2236 73.6532L68.1942 74.3269L65.3299 77.1061L63.8557 76.805L62.3185 73.122L60.7209 71.7005L56.8811 70.6087L56.4045 69.1782L58.826 66.005L59.2559 63.9105L58.2798 60.0389L59.2799 58.912L63.2393 59.4212L65.27 58.7469L68.1357 55.9664L69.6098 56.2701L71.1483 59.955L72.746 61.3732L76.5857 62.4637L77.061 63.8943L74.6388 67.0675Z" fill="#0073A9"/>
<path d="M10.7511 46.6097C10.7511 48.0806 9.55852 49.2731 8.08765 49.2731C6.61679 49.2731 5.42423 48.0806 5.42423 46.6097C5.42423 45.1388 6.61679 43.9463 8.08765 43.9463C9.55852 43.9463 10.7511 45.1388 10.7511 46.6097Z" fill="#0073A9"/>
<path d="M29.3951 53.2684C29.3951 54.7393 28.2025 55.9318 26.7316 55.9318C25.2608 55.9318 24.0682 54.7393 24.0682 53.2684C24.0682 51.7975 25.2608 50.605 26.7316 50.605C28.2025 50.605 29.3951 51.7975 29.3951 53.2684Z" fill="#0073A9"/>
<path d="M14.7462 71.9124C14.7462 73.3833 13.5537 74.5759 12.0828 74.5759C10.6119 74.5759 9.41936 73.3833 9.41936 71.9124C9.41936 70.4416 10.6119 69.249 12.0828 69.249C13.5537 69.249 14.7462 70.4416 14.7462 71.9124Z" fill="#0073A9"/>
<path d="M66.683 59.9272C63.0052 59.9272 60.0245 62.9086 60.0245 66.5858C60.0245 70.263 63.0052 73.2444 66.683 73.2444C70.3602 73.2444 73.3416 70.263 73.3416 66.5858C73.337 62.9099 70.3582 59.9318 66.683 59.9272ZM66.683 70.581C64.4767 70.581 62.6879 68.7921 62.6879 66.5858C62.6879 64.3795 64.4767 62.5907 66.683 62.5907C68.8893 62.5907 70.6782 64.3795 70.6782 66.5858C70.6782 68.7921 68.8893 70.581 66.683 70.581Z" fill="#0073A9"/>
<path d="M53.3659 42.6147C60.7209 42.6147 66.683 36.6526 66.683 29.2976C66.683 21.9426 60.7209 15.9805 53.3659 15.9805C46.0109 15.9805 40.0488 21.9426 40.0488 29.2976C40.0566 36.6493 46.0142 42.6069 53.3659 42.6147ZM53.3659 18.6439C59.2494 18.6439 64.0196 23.4135 64.0196 29.2976C64.0196 35.1817 59.2494 39.9513 53.3659 39.9513C47.4818 39.9513 42.7122 35.1817 42.7122 29.2976C42.7187 23.4167 47.4844 18.6504 53.3659 18.6439Z" fill="#0073A9"/>
<path d="M53.3659 37.2882C57.7785 37.2882 61.3562 33.7105 61.3562 29.2979C61.3562 24.8853 57.7785 21.3076 53.3659 21.3076C48.9527 21.3076 45.3756 24.8853 45.3756 29.2979C45.3802 33.7092 48.9546 37.2836 53.3659 37.2882ZM53.3659 23.971C56.3076 23.971 58.6928 26.3562 58.6928 29.2979C58.6928 32.2396 56.3076 34.6247 53.3659 34.6247C50.4235 34.6247 48.0391 32.2396 48.0391 29.2979C48.0391 26.3562 50.4235 23.971 53.3659 23.971Z" fill="#0073A9"/>
<path d="M72.0099 3.99514C72.0099 6.20144 73.7987 7.99028 76.005 7.99028C78.2113 7.99028 80.0002 6.20144 80.0002 3.99514C80.0002 1.78884 78.2113 0 76.005 0C73.7987 0 72.0099 1.78884 72.0099 3.99514ZM77.3367 3.99514C77.3367 4.73057 76.7405 5.32685 76.005 5.32685C75.2696 5.32685 74.6733 4.73057 74.6733 3.99514C74.6733 3.25971 75.2696 2.66343 76.005 2.66343C76.7405 2.66343 77.3367 3.25971 77.3367 3.99514Z" fill="#0073A9"/>
<path d="M37.3853 2.66343C37.3853 4.13429 36.1928 5.32685 34.7219 5.32685C33.251 5.32685 32.0585 4.13429 32.0585 2.66343C32.0585 1.19256 33.251 0 34.7219 0C36.1928 0 37.3853 1.19256 37.3853 2.66343Z" fill="#0073A9"/>
</g>
<defs>
<clipPath id="clip0_155_123">
<rect width="80" height="80" fill="white"/>
</clipPath>
</defs>
</svg>
