<svg width="122" height="103" viewBox="0 0 122 103" fill="none" xmlns="http://www.w3.org/2000/svg">
<g clip-path="url(#clip0_155_46)">
<path d="M76.4508 7.23926H76.8164C77.0589 7.23926 77.2914 7.14295 77.4628 6.97153C77.6342 6.80011 77.7305 6.56762 77.7305 6.3252C77.7305 6.08277 77.6342 5.85028 77.4628 5.67886C77.2914 5.50744 77.0589 5.41113 76.8164 5.41113H76.4508C76.2084 5.41113 75.9759 5.50744 75.8045 5.67886C75.6331 5.85028 75.5367 6.08277 75.5367 6.3252C75.5367 6.56762 75.6331 6.80011 75.8045 6.97153C75.9759 7.14295 76.2084 7.23926 76.4508 7.23926Z" fill="#0073A9"/>
<path d="M80.436 7.23926H80.8016C81.044 7.23926 81.2765 7.14295 81.4479 6.97153C81.6194 6.80011 81.7157 6.56762 81.7157 6.3252C81.7157 6.08277 81.6194 5.85028 81.4479 5.67886C81.2765 5.50744 81.044 5.41113 80.8016 5.41113H80.436C80.1935 5.41113 79.9611 5.50744 79.7896 5.67886C79.6182 5.85028 79.5219 6.08277 79.5219 6.3252C79.5219 6.56762 79.6182 6.80011 79.7896 6.97153C79.9611 7.14295 80.1935 7.23926 80.436 7.23926Z" fill="#0073A9"/>
<path d="M84.4213 7.23926H84.7869C85.0293 7.23926 85.2618 7.14295 85.4332 6.97153C85.6047 6.80011 85.701 6.56762 85.701 6.3252C85.701 6.08277 85.6047 5.85028 85.4332 5.67886C85.2618 5.50744 85.0293 5.41113 84.7869 5.41113H84.4213C84.1788 5.41113 83.9463 5.50744 83.7749 5.67886C83.6035 5.85028 83.5072 6.08277 83.5072 6.3252C83.5072 6.56762 83.6035 6.80011 83.7749 6.97153C83.9463 7.14295 84.1788 7.23926 84.4213 7.23926Z" fill="#0073A9"/>
<path d="M22.2742 34.3599H31.9907C32.2331 34.3599 32.4656 34.2636 32.6371 34.0921C32.8085 33.9207 32.9048 33.6882 32.9048 33.4458C32.9048 33.2034 32.8085 32.9709 32.6371 32.7995C32.4656 32.628 32.2331 32.5317 31.9907 32.5317H22.2742C22.0318 32.5317 21.7993 32.628 21.6279 32.7995C21.4565 32.9709 21.3602 33.2034 21.3602 33.4458C21.3602 33.6882 21.4565 33.9207 21.6279 34.0921C21.7993 34.2636 22.0318 34.3599 22.2742 34.3599Z" fill="#0073A9"/>
<path d="M22.2742 39.7705H34.6141C34.8565 39.7705 35.089 39.6742 35.2604 39.5028C35.4318 39.3314 35.5281 39.0989 35.5281 38.8564C35.5281 38.614 35.4318 38.3815 35.2604 38.2101C35.089 38.0387 34.8565 37.9424 34.6141 37.9424H22.2742C22.0318 37.9424 21.7993 38.0387 21.6279 38.2101C21.4565 38.3815 21.3602 38.614 21.3602 38.8564C21.3602 39.0989 21.4565 39.3314 21.6279 39.5028C21.7993 39.6742 22.0318 39.7705 22.2742 39.7705Z" fill="#0073A9"/>
<path d="M38.2703 55.9951C38.5127 55.9951 38.7452 55.8988 38.9167 55.7274C39.0881 55.556 39.1844 55.3235 39.1844 55.0811C39.1844 54.8386 39.0881 54.6061 38.9167 54.4347C38.7452 54.2633 38.5127 54.167 38.2703 54.167H22.2742C22.0318 54.167 21.7993 54.2633 21.6279 54.4347C21.4565 54.6061 21.3602 54.8386 21.3602 55.0811C21.3602 55.3235 21.4565 55.556 21.6279 55.7274C21.7993 55.8988 22.0318 55.9951 22.2742 55.9951H38.2703Z" fill="#0073A9"/>
<path d="M34.8792 28.7742C35.0505 28.9445 35.2821 29.04 35.5236 29.04C35.7651 29.04 35.9968 28.9445 36.168 28.7742L38.9102 26.0321C39.0805 25.8608 39.176 25.6291 39.176 25.3876C39.176 25.1462 39.0805 24.9145 38.9102 24.7432L36.168 22.001C35.9932 21.8513 35.7682 21.773 35.5382 21.7819C35.3082 21.7908 35.0899 21.8862 34.9271 22.049C34.7644 22.2118 34.669 22.43 34.6601 22.66C34.6512 22.8901 34.7295 23.115 34.8792 23.2899L36.9816 25.3922L34.8792 27.4946C34.7117 27.6654 34.6179 27.8951 34.6179 28.1344C34.6179 28.3737 34.7117 28.6034 34.8792 28.7742Z" fill="#0073A9"/>
<path d="M25.0256 29.0393C25.2071 29.0404 25.3849 28.9874 25.5362 28.887C25.6875 28.7866 25.8054 28.6435 25.8751 28.4758C25.9447 28.3081 25.9628 28.1235 25.9271 27.9455C25.8914 27.7675 25.8035 27.6041 25.6746 27.4763L23.5722 25.374L25.6746 23.2716C25.8448 23.1003 25.9404 22.8687 25.9404 22.6272C25.9404 22.3857 25.8448 22.154 25.6746 21.9828C25.5896 21.8971 25.4885 21.8291 25.3771 21.7827C25.2657 21.7363 25.1462 21.7124 25.0256 21.7124C24.9049 21.7124 24.7854 21.7363 24.674 21.7827C24.5627 21.8291 24.4616 21.8971 24.3766 21.9828L21.6344 24.725C21.4641 24.8962 21.3686 25.1279 21.3686 25.3694C21.3686 25.6109 21.4641 25.8425 21.6344 26.0138C24.5594 28.9662 24.5594 29.0393 25.0256 29.0393Z" fill="#0073A9"/>
<path d="M28.6727 27.9515C28.9125 27.9505 29.1423 27.8553 29.3126 27.6864L32.6398 24.3592C32.7895 24.1843 32.8678 23.9594 32.8589 23.7294C32.85 23.4993 32.7546 23.2811 32.5918 23.1183C32.429 22.9555 32.2108 22.8602 31.9808 22.8513C31.7507 22.8424 31.5258 22.9206 31.3509 23.0704L28.0238 26.3976C27.898 26.5259 27.8128 26.6884 27.7789 26.8649C27.745 27.0413 27.7638 27.2239 27.8331 27.3897C27.9023 27.5555 28.0189 27.6972 28.1682 27.7971C28.3176 27.897 28.4931 27.9507 28.6727 27.9515Z" fill="#0073A9"/>
<path d="M35.2174 34.3599H36.5428C36.7852 34.3599 37.0177 34.2636 37.1891 34.0921C37.3606 33.9207 37.4569 33.6882 37.4569 33.4458C37.4569 33.2034 37.3606 32.9709 37.1891 32.7995C37.0177 32.628 36.7852 32.5317 36.5428 32.5317H35.2174C34.975 32.5317 34.7425 32.628 34.5711 32.7995C34.3996 32.9709 34.3033 33.2034 34.3033 33.4458C34.3033 33.6882 34.3996 33.9207 34.5711 34.0921C34.7425 34.2636 34.975 34.3599 35.2174 34.3599Z" fill="#0073A9"/>
<path d="M22.2742 44.7891H29.1754C29.4178 44.7891 29.6503 44.6928 29.8217 44.5213C29.9932 44.3499 30.0895 44.1174 30.0895 43.875C30.0895 43.6326 29.9932 43.4001 29.8217 43.2287C29.6503 43.0572 29.4178 42.9609 29.1754 42.9609H22.2742C22.0318 42.9609 21.7993 43.0572 21.6279 43.2287C21.4565 43.4001 21.3602 43.6326 21.3602 43.875C21.3602 44.1174 21.4565 44.3499 21.6279 44.5213C21.7993 44.6928 22.0318 44.7891 22.2742 44.7891Z" fill="#0073A9"/>
<path d="M22.2742 50.2734H35.5281C35.7706 50.2734 36.0031 50.1771 36.1745 50.0057C36.3459 49.8343 36.4422 49.6018 36.4422 49.3594C36.4422 49.117 36.3459 48.8845 36.1745 48.713C36.0031 48.5416 35.7706 48.4453 35.5281 48.4453H22.2742C22.0318 48.4453 21.7993 48.5416 21.6279 48.713C21.4565 48.8845 21.3602 49.117 21.3602 49.3594C21.3602 49.6018 21.4565 49.8343 21.6279 50.0057C21.7993 50.1771 22.0318 50.2734 22.2742 50.2734Z" fill="#0073A9"/>
<path d="M97.7758 17.8882H91.0574V5.18273C91.0574 3.80819 90.5114 2.48994 89.5394 1.51799C88.5675 0.546036 87.2492 0 85.8747 0L28.3893 0C27.0148 0 25.6965 0.546036 24.7246 1.51799C23.7526 2.48994 23.2066 3.80819 23.2066 5.18273V17.8882H20.8117C19.867 17.8906 18.9617 18.267 18.2937 18.935C17.6257 19.603 17.2493 20.5083 17.2469 21.453V57.8602C17.2493 58.8049 17.6257 59.7102 18.2937 60.3782C18.9617 61.0462 19.867 61.4226 20.8117 61.425H23.2066V65.5748H20.8117C19.8679 65.5748 18.9625 65.9492 18.2942 66.6157C17.626 67.2823 17.2493 68.1867 17.2469 69.1305V79.0573C17.2493 80.002 17.6257 80.9073 18.2937 81.5753C18.9617 82.2433 19.867 82.6197 20.8117 82.6221H23.2066C23.221 83.9871 23.7734 85.2913 24.7438 86.2515C25.7142 87.2116 27.0242 87.7501 28.3893 87.75H85.8747C87.2477 87.75 88.5645 87.2052 89.5362 86.2352C90.5079 85.2653 91.055 83.9494 91.0574 82.5764V48.363H97.7758C98.7221 48.3606 99.6288 47.983 100.297 47.313C100.965 46.643 101.341 45.7354 101.341 44.7891V21.453C101.338 20.5083 100.962 19.603 100.294 18.935C99.6258 18.267 98.7205 17.8906 97.7758 17.8882ZM89.2293 5.18273V10.8134H41.0125V1.82812H85.893C86.7795 1.83296 87.6281 2.18852 88.2532 2.81711C88.8784 3.4457 89.2293 4.2962 89.2293 5.18273ZM25.0347 5.18273C25.0347 4.7422 25.1215 4.30598 25.2901 3.89898C25.4586 3.49198 25.7057 3.12217 26.0172 2.81067C26.3287 2.49916 26.6986 2.25206 27.1056 2.08348C27.5126 1.91489 27.9488 1.82812 28.3893 1.82812H39.1844V10.8134H25.0347V5.18273ZM20.8117 59.5969C20.3511 59.5969 19.9094 59.4139 19.5837 59.0882C19.258 58.7625 19.075 58.3208 19.075 57.8602V21.453C19.075 20.9924 19.258 20.5507 19.5837 20.225C19.9094 19.8993 20.3511 19.7163 20.8117 19.7163H39.7328C40.1934 19.7163 40.6352 19.8993 40.9609 20.225C41.2866 20.5507 41.4695 20.9924 41.4695 21.453V57.8602C41.4695 58.3192 41.2878 58.7595 40.9641 59.085C40.6404 59.4104 40.201 59.5945 39.742 59.5969H20.8117ZM20.8117 80.794C20.3511 80.794 19.9094 80.611 19.5837 80.2853C19.258 79.9596 19.075 79.5179 19.075 79.0573V69.1305C19.0774 68.6715 19.2615 68.2321 19.5869 67.9084C19.9123 67.5847 20.3527 67.403 20.8117 67.403H39.7328C40.1919 67.403 40.6322 67.5847 40.9576 67.9084C41.2831 68.2321 41.4671 68.6715 41.4695 69.1305V79.0573C41.4695 79.5163 41.2878 79.9567 40.9641 80.2821C40.6404 80.6075 40.201 80.7916 39.742 80.794H20.8117ZM89.2293 82.549C89.2329 82.9914 89.1488 83.4301 88.9817 83.8398C88.8146 84.2494 88.568 84.6219 88.256 84.9356C87.944 85.2493 87.5729 85.498 87.1641 85.6673C86.7554 85.8366 86.3171 85.9231 85.8747 85.9219H28.3893C27.5137 85.9221 26.6727 85.58 26.0459 84.9686C25.4191 84.3572 25.0562 83.5249 25.0347 82.6495H39.742C40.6858 82.6471 41.5902 82.2705 42.2568 81.6022C42.9233 80.9339 43.2977 80.0286 43.2977 79.0847V69.1305C43.2952 68.1867 42.9186 67.2823 42.2503 66.6157C41.582 65.9492 40.6767 65.5748 39.7328 65.5748H25.0347V61.425H39.742C40.6858 61.4226 41.5902 61.0459 42.2568 60.3777C42.9233 59.7094 43.2977 58.804 43.2977 57.8602V21.453C43.2953 20.5083 42.9189 19.603 42.2509 18.935C41.5829 18.267 40.6775 17.8906 39.7328 17.8882H25.0347V12.6415H89.2293V17.8882H50.9758C50.0311 17.8906 49.1257 18.267 48.4577 18.935C47.7897 19.603 47.4134 20.5083 47.4109 21.453V44.7891C47.4109 45.7354 47.7862 46.643 48.4545 47.313C49.1228 47.983 50.0295 48.3606 50.9758 48.363H89.2293V82.549ZM82.319 46.5349H54.5589L68.4344 32.6503L82.319 46.5349ZM84.9058 46.5349L78.288 39.9171L82.4104 35.7947L93.1141 46.5349H84.9058ZM99.5125 44.7891C99.5125 45.2505 99.3298 45.6932 99.0044 46.0204C98.679 46.3475 98.2372 46.5325 97.7758 46.5349H95.7374L83.0594 33.8203C82.8881 33.6501 82.6565 33.5545 82.415 33.5545C82.1735 33.5545 81.9418 33.6501 81.7706 33.8203L77.0083 38.5917L69.0834 30.7125C68.9121 30.5423 68.6804 30.4467 68.439 30.4467C68.1975 30.4467 67.9658 30.5423 67.7945 30.7125L51.9813 46.5349H50.9758C50.5144 46.5325 50.0726 46.3475 49.7472 46.0204C49.4217 45.6932 49.2391 45.2505 49.2391 44.7891V21.453C49.2391 20.9924 49.4221 20.5507 49.7477 20.225C50.0734 19.8993 50.5152 19.7163 50.9758 19.7163H97.7758C98.2364 19.7163 98.6781 19.8993 99.0038 20.225C99.3295 20.5507 99.5125 20.9924 99.5125 21.453V44.7891Z" fill="#0073A9"/>
<path d="M76.926 22.8516C76.0745 22.8516 75.2421 23.1041 74.5341 23.5771C73.8261 24.0502 73.2743 24.7226 72.9484 25.5093C72.6226 26.2959 72.5373 27.1616 72.7035 27.9967C72.8696 28.8318 73.2796 29.599 73.8817 30.2011C74.4838 30.8032 75.2509 31.2132 76.0861 31.3793C76.9212 31.5454 77.7868 31.4602 78.5735 31.1343C79.3602 30.8085 80.0326 30.2566 80.5056 29.5487C80.9787 28.8407 81.2312 28.0083 81.2312 27.1568C81.2312 26.015 80.7776 24.9199 79.9702 24.1125C79.1628 23.3051 78.0678 22.8516 76.926 22.8516ZM76.926 29.6339C76.436 29.6339 75.9571 29.4886 75.5498 29.2164C75.1424 28.9443 74.8249 28.5574 74.6374 28.1047C74.4499 27.6521 74.4009 27.154 74.4965 26.6735C74.592 26.193 74.828 25.7516 75.1744 25.4052C75.5208 25.0588 75.9622 24.8229 76.4427 24.7273C76.9232 24.6317 77.4213 24.6808 77.8739 24.8682C78.3265 25.0557 78.7134 25.3732 78.9856 25.7806C79.2578 26.1879 79.4031 26.6669 79.4031 27.1568C79.4031 27.8138 79.1421 28.4438 78.6775 28.9084C78.213 29.3729 77.5829 29.6339 76.926 29.6339Z" fill="#0073A9"/>
<path d="M51.1769 69.0388H67.7854C68.7301 69.0364 69.6354 68.6601 70.3034 67.992C70.9715 67.324 71.3478 66.4187 71.3502 65.474V55.5473C71.3478 54.6026 70.9715 53.6972 70.3034 53.0292C69.6354 52.3612 68.7301 51.9848 67.7854 51.9824H51.1769C50.233 51.9848 49.3286 52.3615 48.662 53.0298C47.9955 53.698 47.6212 54.6034 47.6212 55.5473V65.474C47.6212 66.4179 47.9955 67.3232 48.662 67.9915C49.3286 68.6598 50.233 69.0364 51.1769 69.0388ZM49.4493 55.5473C49.4493 55.0882 49.631 54.6479 49.9547 54.3224C50.2784 53.997 50.7178 53.813 51.1769 53.8105H67.7854C68.2452 53.8129 68.6856 53.9967 69.0108 54.3219C69.3359 54.6471 69.5197 55.0874 69.5221 55.5473V65.474C69.5197 65.9338 69.3359 66.3742 69.0108 66.6994C68.6856 67.0246 68.2452 67.2083 67.7854 67.2107H51.1769C50.7178 67.2083 50.2784 67.0242 49.9547 66.6988C49.631 66.3734 49.4493 65.933 49.4493 65.474V55.5473Z" fill="#0073A9"/>
<path d="M64.3577 62.5764C64.3577 62.7873 64.2739 62.9895 64.1248 63.1387C63.9757 63.2878 63.7734 63.3716 63.5625 63.3716C63.3201 63.3716 63.0876 63.4679 62.9161 63.6393C62.7447 63.8107 62.6484 64.0432 62.6484 64.2857C62.6484 66.0041 66.1858 65.1997 66.1858 62.5764V61.4246H66.6063C66.8487 61.4246 67.0812 61.3283 67.2527 61.1569C67.4241 60.9855 67.5204 60.753 67.5204 60.5106C67.5204 60.2682 67.4241 60.0357 67.2527 59.8642C67.0812 59.6928 66.8487 59.5965 66.6063 59.5965H66.1767V58.4448C66.1767 55.8306 62.6393 54.9988 62.6393 56.7355C62.6393 56.9779 62.7356 57.2104 62.907 57.3818C63.0784 57.5533 63.3109 57.6496 63.5533 57.6496C63.7643 57.6496 63.9665 57.7334 64.1157 57.8825C64.2648 58.0316 64.3486 58.2339 64.3486 58.4448L64.3577 62.5764Z" fill="#0073A9"/>
<path d="M52.3469 61.4247H52.7765V62.5764C52.7765 65.1906 56.314 66.0133 56.314 64.2857C56.314 64.0433 56.2176 63.8108 56.0462 63.6394C55.8748 63.4679 55.6423 63.3716 55.3999 63.3716C55.2955 63.3716 55.1921 63.3511 55.0956 63.3111C54.9991 63.2711 54.9114 63.2126 54.8376 63.1387C54.7637 63.0649 54.7052 62.9772 54.6652 62.8807C54.6252 62.7842 54.6047 62.6808 54.6047 62.5764V58.4448C54.6047 58.2339 54.6884 58.0317 54.8376 57.8825C54.9867 57.7334 55.189 57.6496 55.3999 57.6496C55.6423 57.6496 55.8748 57.5533 56.0462 57.3819C56.2176 57.2105 56.314 56.978 56.314 56.7355C56.314 55.0171 52.7765 55.8215 52.7765 58.4448V59.5965H52.3469C52.1045 59.5965 51.872 59.6928 51.7006 59.8643C51.5292 60.0357 51.4329 60.2682 51.4329 60.5106C51.4329 60.753 51.5292 60.9855 51.7006 61.1569C51.872 61.3284 52.1045 61.4247 52.3469 61.4247Z" fill="#0073A9"/>
<path d="M57.621 63.2799C57.7413 63.2806 57.8605 63.2575 57.9719 63.212C58.0833 63.1665 58.1846 63.0995 58.27 63.0148L62.0359 59.2946C62.2062 59.1233 62.3017 58.8916 62.3017 58.6501C62.3017 58.4087 62.2062 58.177 62.0359 58.0057C61.9509 57.9201 61.8498 57.8521 61.7385 57.8057C61.6271 57.7592 61.5076 57.7354 61.3869 57.7354C61.2663 57.7354 61.1468 57.7592 61.0354 57.8057C60.924 57.8521 60.8229 57.9201 60.738 58.0057L57.0269 61.7168C56.9008 61.8413 56.8137 61.9998 56.7761 62.1729C56.7384 62.346 56.7519 62.5263 56.8148 62.6919C56.8778 62.8575 56.9875 63.0012 57.1306 63.1056C57.2737 63.21 57.4441 63.2705 57.621 63.2799Z" fill="#0073A9"/>
<path d="M22.9963 72.0552H37.5482C37.7906 72.0552 38.0231 71.9589 38.1945 71.7875C38.3659 71.616 38.4622 71.3835 38.4622 71.1411C38.4622 70.8987 38.3659 70.6662 38.1945 70.4948C38.0231 70.3234 37.7906 70.2271 37.5482 70.2271H22.9963C22.7539 70.2271 22.5214 70.3234 22.3499 70.4948C22.1785 70.6662 22.0822 70.8987 22.0822 71.1411C22.0822 71.3835 22.1785 71.616 22.3499 71.7875C22.5214 71.9589 22.7539 72.0552 22.9963 72.0552Z" fill="#0073A9"/>
<path d="M32.6396 77.3936C32.8821 77.3936 33.1146 77.2973 33.286 77.1258C33.4574 76.9544 33.5537 76.7219 33.5537 76.4795C33.5537 76.2371 33.4574 76.0046 33.286 75.8332C33.1146 75.6617 32.8821 75.5654 32.6396 75.5654H22.9963C22.7539 75.5654 22.5214 75.6617 22.3499 75.8332C22.1785 76.0046 22.0822 76.2371 22.0822 76.4795C22.0822 76.7219 22.1785 76.9544 22.3499 77.1258C22.5214 77.2973 22.7539 77.3936 22.9963 77.3936H32.6396Z" fill="#0073A9"/>
<path d="M79.7597 73.1792H51.177C50.7065 73.1804 50.2409 73.2747 49.8071 73.4566C49.3732 73.6386 48.9797 73.9047 48.6492 74.2395C48.3186 74.5742 48.0576 74.9711 47.8812 75.4073C47.7048 75.8434 47.6165 76.3102 47.6213 76.7806V79.0932C47.6213 80.0371 47.9956 80.9424 48.6622 81.6107C49.3287 82.279 50.2331 82.6556 51.177 82.658H79.7597C80.7044 82.6556 81.6098 82.2793 82.2778 81.6112C82.9458 80.9432 83.3222 80.0379 83.3246 79.0932V76.7806C83.3282 76.3097 83.2387 75.8428 83.0613 75.4066C82.8839 74.9704 82.622 74.5736 82.2907 74.2389C81.9595 73.9043 81.5653 73.6383 81.131 73.4565C80.6966 73.2746 80.2306 73.1804 79.7597 73.1792ZM51.177 80.7933C50.718 80.7909 50.2786 80.6069 49.9548 80.2814C49.6311 79.956 49.4494 79.5156 49.4494 79.0566V76.7806C49.4494 76.3216 49.6311 75.8812 49.9548 75.5558C50.2786 75.2303 50.718 75.0463 51.177 75.0439H57.3103C57.5384 75.0439 57.7642 75.0888 57.975 75.1761C58.1857 75.2634 58.3771 75.3913 58.5384 75.5526C58.6997 75.7138 58.8276 75.9053 58.9149 76.116C59.0021 76.3267 59.0471 76.5525 59.0471 76.7806V79.0932C59.0471 79.5538 58.8641 79.9955 58.5384 80.3212C58.2127 80.6469 57.771 80.8299 57.3103 80.8299L51.177 80.7933ZM81.4964 79.0566C81.4964 79.5172 81.3135 79.959 80.9878 80.2847C80.6621 80.6104 80.2203 80.7933 79.7597 80.7933H60.4273C61.0032 79.7422 60.8752 79.0566 60.8752 76.744C60.8755 76.1365 60.7214 75.5389 60.4273 75.0073H79.7597C80.2196 75.0097 80.6599 75.1935 80.9851 75.5187C81.3103 75.8438 81.494 76.2842 81.4964 76.744V79.0566Z" fill="#0073A9"/>
</g>
<rect x="0.793762" y="17.5498" width="44.85" height="44.85" rx="7.3125" fill="#0073A9"/>
<g clip-path="url(#clip1_155_46)">
<g opacity="0.701965">
<path d="M19.7093 44.008C18.5892 44.7621 17.286 45.1392 15.7999 45.1392C15.7704 45.1392 15.742 45.1379 15.7126 45.1377V47.4248C17.828 47.3508 19.6787 46.7462 21.2637 45.6104C22.8543 44.4794 23.9957 42.9296 24.6864 40.9606H22.2057C21.6611 42.2383 20.8289 43.2541 19.7093 44.008Z" fill="white"/>
</g>
<path d="M16.0289 45.1374C15.9527 45.1395 15.8763 45.1411 15.799 45.1411C13.0985 45.1411 11.0363 44.3349 9.61292 42.7219C8.25183 41.1932 7.57187 39.2138 7.57187 36.7838C7.57187 34.3544 8.25183 32.3748 9.61292 30.8458C10.2826 30.0916 11.1094 29.5002 12.0937 29.0707C13.0773 28.6415 14.3124 28.4265 15.799 28.4265C17.2851 28.4265 18.5883 28.8037 19.7084 29.5576C20.8281 30.3117 21.6602 31.3279 22.2048 32.6051H24.6855C23.9948 30.6366 22.8534 29.0863 21.2628 27.9553C19.5671 26.7409 17.5678 26.133 15.2651 26.133C12.2296 26.133 9.76993 27.1697 7.88579 29.2435C6.10632 31.2336 5.2168 33.7471 5.2168 36.7838C5.2168 39.821 6.10632 42.3345 7.88579 44.3242C9.76993 46.3976 12.2296 47.4346 15.2651 47.4346C15.5237 47.4346 15.7779 47.4258 16.0289 47.4105V45.1374Z" fill="white"/>
<path d="M30.8316 50.0601L31.8071 50.2752C32.228 50.324 32.6512 50.3479 33.0518 50.356L33.0418 30.171H30.478L23.6114 39.6048L16.6271 30.171H13.8087V47.2029H16.0291V33.5952L23.4902 43.0591L30.8316 33.5952V50.0601Z" fill="white"/>
<path d="M13.8086 47.3096H16.029V47.2038H13.8086V47.3096Z" fill="white"/>
<g opacity="0.701965">
<path d="M29.0146 43.1982C29.6255 43.4464 30.2667 43.6668 30.9368 43.8599V41.6385C30.5333 41.5144 30.156 41.3816 29.8065 41.2394C29.1687 40.9804 28.6559 40.6615 28.2674 40.2823C27.8787 39.9038 27.6845 39.4898 27.6845 39.0414C27.6845 38.5927 27.7489 38.1694 27.8787 37.7704C28.008 37.3719 28.2622 37.0078 28.6409 36.6789C29.0193 36.3499 29.5526 36.0709 30.24 35.8415C30.4559 35.7696 30.6894 35.7103 30.9368 35.6609V33.8726L31.1843 33.5008C29.5565 33.6923 28.2803 34.1684 27.3558 34.9293C26.12 35.9461 25.5025 37.262 25.5025 38.8769C25.5025 40.0132 25.8361 40.9157 26.5039 41.5832C27.1713 42.2515 28.008 42.7896 29.0146 43.1982Z" fill="white"/>
<path d="M27.3451 48.2598C27.288 48.0244 27.2514 47.7777 27.2364 47.5192H24.905C24.9288 47.774 24.9634 48.0205 25.0071 48.2598H27.3451Z" fill="white"/>
</g>
<path d="M31.3603 35.5894C31.7922 35.5292 32.2654 35.4984 32.7811 35.4984C33.787 35.4984 34.6291 35.5983 35.3067 35.7974C37.2196 36.3358 38.2756 37.4226 38.475 39.0571H40.7765C40.6965 37.4624 40.0291 36.1564 38.7739 35.1397C37.399 33.9834 35.4561 33.4051 32.9455 33.4051C32.3846 33.4051 31.8574 33.4323 31.3603 33.4838V35.5894Z" fill="white"/>
<path d="M39.1626 44.2906C38.5246 43.8719 37.7975 43.5279 36.9806 43.2588C36.1634 42.9895 35.3317 42.7504 34.485 42.541C33.6378 42.3318 32.8061 42.1275 31.9892 41.928C31.7732 41.8754 31.5639 41.8205 31.3604 41.7636V43.9779C31.6591 44.0574 31.9631 44.132 32.2732 44.2008C33.4388 44.4603 34.5247 44.739 35.531 45.0382C36.5371 45.3371 37.3739 45.7161 38.0416 46.1746C38.7091 46.6334 39.043 47.2613 39.043 48.0584C39.043 50.3911 37.19 51.5574 33.4836 51.5574C31.71 51.5574 30.2856 51.2485 29.2095 50.6304C27.9739 49.9126 27.3163 48.8762 27.2369 47.5202H24.9055C25.0848 49.4342 25.8218 50.9096 27.1173 51.9461C28.5717 53.1027 30.684 53.6807 33.4538 53.6807C35.9047 53.6807 37.8223 53.1923 39.2074 52.2154C40.5922 51.2386 41.2847 49.8229 41.2847 47.9687C41.2847 46.4137 40.5772 45.1875 39.1626 44.2906Z" fill="white"/>
</g>
<g clip-path="url(#clip2_155_46)">
<path d="M103.417 41.4375C93.5898 41.4354 85.6209 49.3995 85.6188 59.2271C85.6167 69.054 93.5808 77.0229 103.408 77.025C113.235 77.0271 121.204 69.063 121.206 59.2354V59.2313C121.206 49.4058 113.242 41.4396 103.417 41.4375ZM98.9662 66.6435H96.0003V51.8149H98.9662V66.6435ZM110.829 66.6435H101.932V63.6776H110.829V66.6435ZM110.829 60.7117H101.932V57.7466H110.829V60.7117ZM110.829 54.7807H101.932V51.8149H110.829V54.7807Z" fill="#0073A9"/>
</g>
<defs>
<clipPath id="clip0_155_46">
<rect width="87.9938" height="102.375" fill="white" transform="translate(15.2969)"/>
</clipPath>
<clipPath id="clip1_155_46">
<rect x="5.13867" y="26.0996" width="36.1603" height="27.6108" rx="7.3125" fill="white"/>
</clipPath>
<clipPath id="clip2_155_46">
<rect width="35.5875" height="35.5875" fill="white" transform="translate(85.6188 41.4375)"/>
</clipPath>
</defs>
</svg>
